<mxfile host="app.diagrams.net" modified="2021-04-17T20:44:20.864Z" agent="5.0 (Macintosh; Intel Mac OS X 10_15_6) AppleWebKit/605.1.15 (KHTML, like Gecko) Version/14.0.3 Safari/605.1.15" etag="xbslspDQqNEdLrkqPSzg" version="14.5.10" type="github" pages="6">
  <diagram id="Q7SySIOpWKD35Otaov_F" name="Page-1">
    <mxGraphModel dx="1746" dy="1045" grid="0" gridSize="10" guides="1" tooltips="1" connect="1" arrows="1" fold="1" page="0" pageScale="1" pageWidth="827" pageHeight="1169" math="0" shadow="0">
      <root>
        <mxCell id="0" />
        <mxCell id="1" parent="0" />
        <mxCell id="VYgA78_L0uJZvJCJjYSU-2" value="TIMER" style="text;html=1;strokeColor=none;fillColor=none;align=center;verticalAlign=middle;whiteSpace=wrap;rounded=0;fontSize=49;shadow=1;" parent="1" vertex="1">
          <mxGeometry x="810.5" y="-91" width="210" height="110" as="geometry" />
        </mxCell>
        <mxCell id="8tYOt1Tcwvkd_dsfKMtM-10" style="edgeStyle=none;rounded=0;orthogonalLoop=1;jettySize=auto;html=1;exitX=0;exitY=0.5;exitDx=0;exitDy=0;fontSize=15;dashed=1;endArrow=block;endFill=0;entryX=1;entryY=0.5;entryDx=0;entryDy=0;endSize=12;shadow=1;" parent="1" source="8tYOt1Tcwvkd_dsfKMtM-9" target="8tYOt1Tcwvkd_dsfKMtM-3" edge="1">
          <mxGeometry relative="1" as="geometry">
            <mxPoint x="1173" y="280" as="sourcePoint" />
          </mxGeometry>
        </mxCell>
        <mxCell id="8tYOt1Tcwvkd_dsfKMtM-27" style="edgeStyle=none;rounded=0;orthogonalLoop=1;jettySize=auto;html=1;fontSize=15;endArrow=diamond;endFill=0;endSize=12;startSize=6;shadow=1;" parent="1" source="8tYOt1Tcwvkd_dsfKMtM-3" target="8tYOt1Tcwvkd_dsfKMtM-23" edge="1">
          <mxGeometry relative="1" as="geometry">
            <mxPoint x="723" y="286" as="targetPoint" />
          </mxGeometry>
        </mxCell>
        <mxCell id="8tYOt1Tcwvkd_dsfKMtM-147" value="produces" style="edgeStyle=none;rounded=0;orthogonalLoop=1;jettySize=auto;html=1;exitX=0.5;exitY=1;exitDx=0;exitDy=0;fontSize=15;endArrow=none;endFill=0;dashed=1;shadow=1;" parent="1" source="8tYOt1Tcwvkd_dsfKMtM-3" target="8tYOt1Tcwvkd_dsfKMtM-11" edge="1">
          <mxGeometry relative="1" as="geometry" />
        </mxCell>
        <mxCell id="8tYOt1Tcwvkd_dsfKMtM-3" value="&lt;p style=&quot;margin: 0px ; margin-top: 4px ; text-align: center&quot;&gt;&lt;i&gt;&amp;lt;&amp;lt;Interface&amp;gt;&amp;gt;&lt;/i&gt;&lt;br&gt;&lt;b&gt;Timer&lt;/b&gt;&lt;/p&gt;&lt;hr size=&quot;1&quot;&gt;&lt;p style=&quot;margin: 0px ; margin-left: 4px&quot;&gt;&lt;/p&gt;&lt;p style=&quot;margin: 0px ; margin-left: 4px&quot;&gt;+ getRemaningTime(Player player)&lt;/p&gt;&lt;p style=&quot;margin: 0px ; margin-left: 4px&quot;&gt;+ start ()&lt;/p&gt;&lt;p style=&quot;margin: 0px ; margin-left: 4px&quot;&gt;+ stop ()&lt;/p&gt;&lt;p style=&quot;margin: 0px ; margin-left: 4px&quot;&gt;+ isRunning(): boolean&lt;/p&gt;&lt;p style=&quot;margin: 0px ; margin-left: 4px&quot;&gt;+ switchPlayer(Player player)&lt;/p&gt;&lt;p style=&quot;margin: 0px ; margin-left: 4px&quot;&gt;+ isModifiable(): boolean&lt;/p&gt;&lt;p style=&quot;margin: 0px ; margin-left: 4px&quot;&gt;+ setModificable(boolean modificable)&lt;/p&gt;&lt;p style=&quot;margin: 0px ; margin-left: 4px&quot;&gt;+ setIncrement(int increment)&lt;/p&gt;&lt;p style=&quot;margin: 0px ; margin-left: 4px&quot;&gt;+ getIncrement(): int&lt;/p&gt;&lt;p style=&quot;margin: 0px ; margin-left: 4px&quot;&gt;+ updatePlayerTime(Player player, double second)&lt;/p&gt;&lt;p style=&quot;margin: 0px ; margin-left: 4px&quot;&gt;+ addTimerToPlayer(Player player, double second)&lt;/p&gt;&lt;p style=&quot;margin: 0px ; margin-left: 4px&quot;&gt;+ getPlayersWithoutTime(): Optional&amp;lt;Player&amp;gt;&lt;/p&gt;" style="verticalAlign=top;align=left;overflow=fill;fontSize=12;fontFamily=Helvetica;html=1;shadow=1;" parent="1" vertex="1">
          <mxGeometry x="758" y="170" width="315" height="220" as="geometry" />
        </mxCell>
        <mxCell id="8tYOt1Tcwvkd_dsfKMtM-9" value="TimerImpl" style="html=1;fontSize=15;shadow=1;" parent="1" vertex="1">
          <mxGeometry x="1138" y="255" width="110" height="50" as="geometry" />
        </mxCell>
        <mxCell id="8tYOt1Tcwvkd_dsfKMtM-18" style="edgeStyle=none;rounded=0;orthogonalLoop=1;jettySize=auto;html=1;fontSize=15;dashed=1;endArrow=block;endFill=0;endSize=12;entryX=0;entryY=0.5;entryDx=0;entryDy=0;shadow=1;" parent="1" source="8tYOt1Tcwvkd_dsfKMtM-14" target="8tYOt1Tcwvkd_dsfKMtM-11" edge="1">
          <mxGeometry relative="1" as="geometry">
            <Array as="points" />
          </mxGeometry>
        </mxCell>
        <mxCell id="8tYOt1Tcwvkd_dsfKMtM-11" value="&lt;p style=&quot;margin: 0px ; margin-top: 4px ; text-align: center&quot;&gt;&lt;i&gt;&amp;lt;&amp;lt;Interface&amp;gt;&amp;gt;&lt;/i&gt;&lt;br&gt;&lt;b&gt;TimerFactory&lt;/b&gt;&lt;/p&gt;&lt;hr size=&quot;1&quot;&gt;&lt;p style=&quot;margin: 0px ; margin-left: 4px&quot;&gt;+ defaultTimer(players:List&amp;lt;Player&amp;gt;): Timer&lt;/p&gt;&lt;p style=&quot;margin: 0px ; margin-left: 4px&quot;&gt;+ equalTimer(players:List&amp;lt;Player&amp;gt;, duration:double): Timer&lt;/p&gt;&lt;p style=&quot;margin: 0px ; margin-left: 4px&quot;&gt;+ incrementTimer(players:List&amp;lt;Player&amp;gt;, duration:double, increment:int): Timer&lt;/p&gt;&lt;p style=&quot;margin: 0px ; margin-left: 4px&quot;&gt;+ fromTimerMap(PlayersTimer:Map&amp;lt;Player, Double&amp;gt;)&lt;/p&gt;&lt;p style=&quot;margin: 0px ; margin-left: 4px&quot;&gt;&lt;br&gt;&lt;/p&gt;" style="verticalAlign=top;align=left;overflow=fill;fontSize=12;fontFamily=Helvetica;html=1;shadow=1;" parent="1" vertex="1">
          <mxGeometry x="700.5" y="435" width="430" height="110" as="geometry" />
        </mxCell>
        <mxCell id="8tYOt1Tcwvkd_dsfKMtM-12" style="edgeStyle=none;rounded=0;orthogonalLoop=1;jettySize=auto;html=1;exitX=0.5;exitY=1;exitDx=0;exitDy=0;fontSize=15;shadow=1;" parent="1" source="8tYOt1Tcwvkd_dsfKMtM-11" target="8tYOt1Tcwvkd_dsfKMtM-11" edge="1">
          <mxGeometry relative="1" as="geometry" />
        </mxCell>
        <mxCell id="8tYOt1Tcwvkd_dsfKMtM-14" value="TimerFactoryImpl" style="html=1;fontSize=15;shadow=1;" parent="1" vertex="1">
          <mxGeometry x="512" y="465" width="150" height="50" as="geometry" />
        </mxCell>
        <mxCell id="8tYOt1Tcwvkd_dsfKMtM-23" value="TimerThread" style="swimlane;fontStyle=0;childLayout=stackLayout;horizontal=1;startSize=26;fillColor=none;horizontalStack=0;resizeParent=1;resizeParentMax=0;resizeLast=0;collapsible=1;marginBottom=0;fontSize=15;shadow=1;" parent="1" vertex="1">
          <mxGeometry x="705.5" y="45" width="403" height="70" as="geometry" />
        </mxCell>
        <mxCell id="8tYOt1Tcwvkd_dsfKMtM-24" value="+TimerThread(timer:Timer, callBack:Runnable,  remainingTimer:Runnable)&#xa;+ run()" style="text;strokeColor=none;fillColor=none;align=left;verticalAlign=top;spacingLeft=4;spacingRight=4;overflow=hidden;rotatable=0;points=[[0,0.5],[1,0.5]];portConstraint=eastwest;shadow=1;" parent="8tYOt1Tcwvkd_dsfKMtM-23" vertex="1">
          <mxGeometry y="26" width="403" height="44" as="geometry" />
        </mxCell>
        <mxCell id="8tYOt1Tcwvkd_dsfKMtM-29" value="REPLAY" style="text;html=1;strokeColor=none;fillColor=none;align=center;verticalAlign=middle;whiteSpace=wrap;rounded=0;fontSize=49;shadow=1;" parent="1" vertex="1">
          <mxGeometry x="2089" y="23" width="210" height="110" as="geometry" />
        </mxCell>
        <mxCell id="8tYOt1Tcwvkd_dsfKMtM-30" style="edgeStyle=none;rounded=0;orthogonalLoop=1;jettySize=auto;html=1;exitX=0.5;exitY=1;exitDx=0;exitDy=0;fontSize=15;shadow=1;" parent="1" source="8tYOt1Tcwvkd_dsfKMtM-11" target="8tYOt1Tcwvkd_dsfKMtM-11" edge="1">
          <mxGeometry relative="1" as="geometry" />
        </mxCell>
        <mxCell id="8tYOt1Tcwvkd_dsfKMtM-32" value="STYLE - MEDIA" style="text;html=1;strokeColor=none;fillColor=none;align=center;verticalAlign=middle;whiteSpace=wrap;rounded=0;fontSize=49;shadow=1;" parent="1" vertex="1">
          <mxGeometry x="740" y="1169" width="410" height="110" as="geometry" />
        </mxCell>
        <mxCell id="8tYOt1Tcwvkd_dsfKMtM-33" value="ReplayData" style="swimlane;fontStyle=1;align=center;verticalAlign=top;childLayout=stackLayout;horizontal=1;startSize=26;horizontalStack=0;resizeParent=1;resizeParentMax=0;resizeLast=0;collapsible=1;marginBottom=0;fontSize=15;shadow=1;" parent="1" vertex="1">
          <mxGeometry x="1890" y="116" width="630" height="140" as="geometry" />
        </mxCell>
        <mxCell id="8tYOt1Tcwvkd_dsfKMtM-36" value="+ ReplayData(matchID:String, date:Date, whiteUser:User, blackUser:User, boards:List&lt;Board&gt;,  gametype:GameType)&#xa;+ getMatchID(): String&#xa;+ getDate(): Date&#xa;+ getWhiteUser(): User&#xa;+ getBlackUser(): User&#xa;+ getBoards():List&lt;Board&gt;&#xa;+ getGameType(): GameType" style="text;strokeColor=none;fillColor=none;align=left;verticalAlign=top;spacingLeft=4;spacingRight=4;overflow=hidden;rotatable=0;points=[[0,0.5],[1,0.5]];portConstraint=eastwest;shadow=1;" parent="8tYOt1Tcwvkd_dsfKMtM-33" vertex="1">
          <mxGeometry y="26" width="630" height="114" as="geometry" />
        </mxCell>
        <mxCell id="8tYOt1Tcwvkd_dsfKMtM-40" value="creates&lt;br&gt;" style="edgeStyle=none;rounded=0;orthogonalLoop=1;jettySize=auto;html=1;exitX=1;exitY=0.5;exitDx=0;exitDy=0;entryX=0;entryY=0.411;entryDx=0;entryDy=0;fontSize=15;endArrow=none;endFill=0;entryPerimeter=0;shadow=1;" parent="1" source="8tYOt1Tcwvkd_dsfKMtM-36" target="8tYOt1Tcwvkd_dsfKMtM-177" edge="1">
          <mxGeometry relative="1" as="geometry">
            <mxPoint x="2601" y="199" as="targetPoint" />
          </mxGeometry>
        </mxCell>
        <mxCell id="8tYOt1Tcwvkd_dsfKMtM-183" style="edgeStyle=none;rounded=0;orthogonalLoop=1;jettySize=auto;html=1;entryX=0.179;entryY=1.009;entryDx=0;entryDy=0;entryPerimeter=0;dashed=1;startSize=6;endArrow=none;endFill=0;endSize=12;fontSize=15;shadow=1;" parent="1" source="8tYOt1Tcwvkd_dsfKMtM-41" target="8tYOt1Tcwvkd_dsfKMtM-36" edge="1">
          <mxGeometry relative="1" as="geometry" />
        </mxCell>
        <mxCell id="8tYOt1Tcwvkd_dsfKMtM-41" value="&lt;p style=&quot;margin: 0px ; margin-top: 4px ; text-align: center&quot;&gt;&lt;i&gt;&amp;lt;&amp;lt;Interface&amp;gt;&amp;gt;&lt;/i&gt;&lt;br&gt;&lt;b&gt;SavedReplay&lt;/b&gt;&lt;/p&gt;&lt;hr size=&quot;1&quot;&gt;&lt;p style=&quot;margin: 0px ; margin-left: 4px&quot;&gt;+ save(replayData:ReplayData)&lt;/p&gt;&lt;p style=&quot;margin: 0px ; margin-left: 4px&quot;&gt;+ getSaved(MatchID:String): ReplayData&lt;/p&gt;&lt;p style=&quot;margin: 0px ; margin-left: 4px&quot;&gt;+ getAllBoards(): Set&amp;lt;ReplayData&amp;gt;&lt;/p&gt;" style="verticalAlign=top;align=left;overflow=fill;fontSize=12;fontFamily=Helvetica;html=1;shadow=1;" parent="1" vertex="1">
          <mxGeometry x="1890" y="292" width="225" height="91" as="geometry" />
        </mxCell>
        <mxCell id="8tYOt1Tcwvkd_dsfKMtM-161" style="edgeStyle=none;rounded=0;orthogonalLoop=1;jettySize=auto;html=1;entryX=0.5;entryY=1;entryDx=0;entryDy=0;endArrow=block;endFill=0;fontSize=15;endSize=12;dashed=1;shadow=1;" parent="1" source="8tYOt1Tcwvkd_dsfKMtM-44" target="8tYOt1Tcwvkd_dsfKMtM-41" edge="1">
          <mxGeometry relative="1" as="geometry" />
        </mxCell>
        <mxCell id="8tYOt1Tcwvkd_dsfKMtM-44" value="SavedReplayImpl&lt;br&gt;" style="html=1;fontSize=15;shadow=1;" parent="1" vertex="1">
          <mxGeometry x="1927.5" y="435" width="152" height="50" as="geometry" />
        </mxCell>
        <mxCell id="8tYOt1Tcwvkd_dsfKMtM-48" value="DirectoryConfiguration" style="html=1;fontSize=15;shadow=1;" parent="1" vertex="1">
          <mxGeometry x="2520" y="448" width="160" height="50" as="geometry" />
        </mxCell>
        <mxCell id="4gkbn8ZJmCfsS1XQk6z_-24" style="edgeStyle=orthogonalEdgeStyle;rounded=0;orthogonalLoop=1;jettySize=auto;html=1;shadow=1;endArrow=open;endFill=0;endSize=12;" parent="1" source="8tYOt1Tcwvkd_dsfKMtM-57" target="4gkbn8ZJmCfsS1XQk6z_-2" edge="1">
          <mxGeometry relative="1" as="geometry" />
        </mxCell>
        <mxCell id="4gkbn8ZJmCfsS1XQk6z_-28" style="edgeStyle=orthogonalEdgeStyle;rounded=0;orthogonalLoop=1;jettySize=auto;html=1;shadow=1;endArrow=open;endFill=0;endSize=12;entryX=0.378;entryY=0.977;entryDx=0;entryDy=0;entryPerimeter=0;" parent="1" source="8tYOt1Tcwvkd_dsfKMtM-57" target="4gkbn8ZJmCfsS1XQk6z_-22" edge="1">
          <mxGeometry relative="1" as="geometry">
            <mxPoint x="-332" y="1492" as="targetPoint" />
            <Array as="points">
              <mxPoint x="-333" y="1712" />
              <mxPoint x="-333" y="1712" />
            </Array>
          </mxGeometry>
        </mxCell>
        <mxCell id="8tYOt1Tcwvkd_dsfKMtM-57" value="PieceStyle" style="swimlane;fontStyle=1;align=center;verticalAlign=top;childLayout=stackLayout;horizontal=1;startSize=26;horizontalStack=0;resizeParent=1;resizeParentMax=0;resizeLast=0;collapsible=1;marginBottom=0;fontSize=15;shadow=1;" parent="1" vertex="1">
          <mxGeometry x="-479" y="1780" width="510" height="110" as="geometry" />
        </mxCell>
        <mxCell id="8tYOt1Tcwvkd_dsfKMtM-60" value="+ setPieceStyle(style : PieceStyleconfigurationObjectStrategy)&#xa;+ getPieceStyle() : PieceStyleconfigurationObjectStrategy&#xa;+ getPieceStylePath() : Path&#xa;+ getCurrentPieceStylePath(piece:PieceType, piceColor: PlayerColor): Path&#xa;+ getPieceStylePath(style:PieceStyleEnum, piece:PieceType, piceColor: PlayerColor): Path" style="text;strokeColor=none;fillColor=none;align=left;verticalAlign=top;spacingLeft=4;spacingRight=4;overflow=hidden;rotatable=0;points=[[0,0.5],[1,0.5]];portConstraint=eastwest;shadow=1;fontStyle=4" parent="8tYOt1Tcwvkd_dsfKMtM-57" vertex="1">
          <mxGeometry y="26" width="510" height="84" as="geometry" />
        </mxCell>
        <mxCell id="8tYOt1Tcwvkd_dsfKMtM-61" value="SETTING" style="text;html=1;strokeColor=none;fillColor=none;align=center;verticalAlign=middle;whiteSpace=wrap;rounded=0;fontSize=49;shadow=1;" parent="1" vertex="1">
          <mxGeometry x="2050.5" y="813" width="410" height="110" as="geometry" />
        </mxCell>
        <mxCell id="8tYOt1Tcwvkd_dsfKMtM-149" style="edgeStyle=none;rounded=0;orthogonalLoop=1;jettySize=auto;html=1;fontSize=15;exitX=0.5;exitY=1;exitDx=0;exitDy=0;endArrow=block;endFill=0;dashed=1;endSize=12;shadow=1;" parent="1" source="8tYOt1Tcwvkd_dsfKMtM-154" target="8tYOt1Tcwvkd_dsfKMtM-62" edge="1">
          <mxGeometry relative="1" as="geometry">
            <mxPoint x="2268" y="1529" as="sourcePoint" />
          </mxGeometry>
        </mxCell>
        <mxCell id="8tYOt1Tcwvkd_dsfKMtM-62" value="&lt;p style=&quot;margin: 0px ; margin-top: 4px ; text-align: center&quot;&gt;&lt;i&gt;&amp;lt;&amp;lt;Interface&amp;gt;&amp;gt;&lt;/i&gt;&lt;br&gt;&lt;b&gt;SettingsDataStorageJsonStrategy&amp;lt;T&amp;gt;&lt;/b&gt;&lt;/p&gt;&lt;hr size=&quot;1&quot;&gt;&lt;p style=&quot;margin: 0px ; margin-left: 4px&quot;&gt;+ setSetting(value : T)&lt;/p&gt;&lt;p style=&quot;margin: 0px ; margin-left: 4px&quot;&gt;+ getSetting() : Optional&amp;lt;T&amp;gt;&lt;/p&gt;&lt;p style=&quot;margin: 0px ; margin-left: 4px&quot;&gt;&lt;br&gt;&lt;/p&gt;" style="verticalAlign=top;align=left;overflow=fill;fontSize=12;fontFamily=Helvetica;html=1;shadow=1;" parent="1" vertex="1">
          <mxGeometry x="2129.5" y="1542" width="252" height="80" as="geometry" />
        </mxCell>
        <mxCell id="LNh817HpMAisNRS1A039-1" style="edgeStyle=orthogonalEdgeStyle;rounded=0;orthogonalLoop=1;jettySize=auto;html=1;shadow=1;endArrow=none;endFill=0;" parent="1" source="8tYOt1Tcwvkd_dsfKMtM-63" edge="1">
          <mxGeometry relative="1" as="geometry">
            <mxPoint x="2257" y="1378" as="targetPoint" />
            <Array as="points">
              <mxPoint x="1970" y="1378" />
              <mxPoint x="2257" y="1378" />
            </Array>
          </mxGeometry>
        </mxCell>
        <mxCell id="LNh817HpMAisNRS1A039-3" style="edgeStyle=orthogonalEdgeStyle;rounded=0;orthogonalLoop=1;jettySize=auto;html=1;shadow=1;endArrow=none;endFill=0;" parent="1" source="8tYOt1Tcwvkd_dsfKMtM-63" edge="1">
          <mxGeometry relative="1" as="geometry">
            <mxPoint x="2258" y="1249" as="targetPoint" />
            <Array as="points">
              <mxPoint x="1970" y="1249" />
              <mxPoint x="2258" y="1249" />
            </Array>
          </mxGeometry>
        </mxCell>
        <mxCell id="8tYOt1Tcwvkd_dsfKMtM-63" value="PieceStyleDateStorageJsonStrategy" style="html=1;fontSize=15;shadow=1;" parent="1" vertex="1">
          <mxGeometry x="1840.5" y="1282" width="259" height="50" as="geometry" />
        </mxCell>
        <mxCell id="8tYOt1Tcwvkd_dsfKMtM-78" style="edgeStyle=none;rounded=0;orthogonalLoop=1;jettySize=auto;html=1;entryX=0.5;entryY=1;entryDx=0;entryDy=0;fontSize=15;endArrow=diamond;endFill=0;endSize=12;shadow=1;" parent="1" source="8tYOt1Tcwvkd_dsfKMtM-64" target="8tYOt1Tcwvkd_dsfKMtM-76" edge="1">
          <mxGeometry relative="1" as="geometry" />
        </mxCell>
        <mxCell id="8tYOt1Tcwvkd_dsfKMtM-64" value="ApplicationStyleDateStorageJsonStrategy" style="html=1;fontSize=15;shadow=1;" parent="1" vertex="1">
          <mxGeometry x="2115" y="1282" width="283" height="50" as="geometry" />
        </mxCell>
        <mxCell id="LNh817HpMAisNRS1A039-2" style="edgeStyle=orthogonalEdgeStyle;rounded=0;orthogonalLoop=1;jettySize=auto;html=1;shadow=1;endArrow=none;endFill=0;" parent="1" source="8tYOt1Tcwvkd_dsfKMtM-65" edge="1">
          <mxGeometry relative="1" as="geometry">
            <mxPoint x="2256" y="1378" as="targetPoint" />
            <Array as="points">
              <mxPoint x="2548" y="1378" />
              <mxPoint x="2256" y="1378" />
            </Array>
          </mxGeometry>
        </mxCell>
        <mxCell id="LNh817HpMAisNRS1A039-4" style="edgeStyle=orthogonalEdgeStyle;rounded=0;orthogonalLoop=1;jettySize=auto;html=1;shadow=1;endArrow=none;endFill=0;" parent="1" source="8tYOt1Tcwvkd_dsfKMtM-65" edge="1">
          <mxGeometry relative="1" as="geometry">
            <mxPoint x="2258" y="1249" as="targetPoint" />
            <Array as="points">
              <mxPoint x="2545" y="1249" />
              <mxPoint x="2258" y="1249" />
            </Array>
          </mxGeometry>
        </mxCell>
        <mxCell id="8tYOt1Tcwvkd_dsfKMtM-65" value="SoundStyleDateStorageJsonStrategy" style="html=1;fontSize=15;shadow=1;" parent="1" vertex="1">
          <mxGeometry x="2410" y="1282" width="270" height="50" as="geometry" />
        </mxCell>
        <mxCell id="LNh817HpMAisNRS1A039-5" style="edgeStyle=orthogonalEdgeStyle;rounded=0;orthogonalLoop=1;jettySize=auto;html=1;shadow=1;endArrow=none;endFill=0;" parent="1" source="8tYOt1Tcwvkd_dsfKMtM-69" edge="1">
          <mxGeometry relative="1" as="geometry">
            <mxPoint x="2258" y="1065" as="targetPoint" />
            <Array as="points">
              <mxPoint x="2128" y="1065" />
              <mxPoint x="2258" y="1065" />
            </Array>
          </mxGeometry>
        </mxCell>
        <mxCell id="8tYOt1Tcwvkd_dsfKMtM-69" value="PieceStyle" style="html=1;fontSize=15;shadow=1;" parent="1" vertex="1">
          <mxGeometry x="2072.5" y="986" width="110" height="50" as="geometry" />
        </mxCell>
        <mxCell id="8tYOt1Tcwvkd_dsfKMtM-70" value="ApplicationStyle" style="html=1;fontSize=15;shadow=1;" parent="1" vertex="1">
          <mxGeometry x="2202.5" y="988" width="110" height="50" as="geometry" />
        </mxCell>
        <mxCell id="LNh817HpMAisNRS1A039-6" style="edgeStyle=orthogonalEdgeStyle;rounded=0;orthogonalLoop=1;jettySize=auto;html=1;shadow=1;endArrow=none;endFill=0;" parent="1" source="8tYOt1Tcwvkd_dsfKMtM-71" edge="1">
          <mxGeometry relative="1" as="geometry">
            <mxPoint x="2257" y="1065" as="targetPoint" />
            <Array as="points">
              <mxPoint x="2388" y="1065" />
              <mxPoint x="2257" y="1065" />
            </Array>
          </mxGeometry>
        </mxCell>
        <mxCell id="8tYOt1Tcwvkd_dsfKMtM-71" value="Sound" style="html=1;fontSize=15;shadow=1;" parent="1" vertex="1">
          <mxGeometry x="2332.5" y="988" width="110" height="50" as="geometry" />
        </mxCell>
        <mxCell id="8tYOt1Tcwvkd_dsfKMtM-192" style="edgeStyle=none;rounded=0;orthogonalLoop=1;jettySize=auto;html=1;startSize=6;endArrow=open;endFill=0;endSize=12;fontSize=15;shadow=1;" parent="1" source="8tYOt1Tcwvkd_dsfKMtM-76" target="8tYOt1Tcwvkd_dsfKMtM-70" edge="1">
          <mxGeometry relative="1" as="geometry" />
        </mxCell>
        <mxCell id="8tYOt1Tcwvkd_dsfKMtM-76" value="&lt;p style=&quot;margin: 0px ; margin-top: 4px ; text-align: center&quot;&gt;&lt;b&gt;SettingMediator&lt;/b&gt;&lt;/p&gt;&lt;hr size=&quot;1&quot;&gt;&lt;p style=&quot;margin: 0px ; margin-left: 4px&quot;&gt;&lt;u&gt;+ setAndSaveApplicationStyle(style: ApplicationStyleEnum)&lt;br&gt;&lt;/u&gt;&lt;/p&gt;&lt;p style=&quot;margin: 0px ; margin-left: 4px&quot;&gt;&lt;u&gt;+ setAndSavePieceStyle(style: PieceStyleEnum)&lt;br&gt;&lt;/u&gt;&lt;/p&gt;&lt;p style=&quot;margin: 0px ; margin-left: 4px&quot;&gt;&lt;u&gt;+ setAndSaveSoundVolume(double: volume)&lt;br&gt;&lt;/u&gt;&lt;/p&gt;&lt;p style=&quot;margin: 0px ; margin-left: 4px&quot;&gt;&lt;u&gt;+ getSavedApplicationStyle() ApplicationStyleEnum&lt;/u&gt;&lt;/p&gt;&lt;p style=&quot;margin: 0px ; margin-left: 4px&quot;&gt;&lt;u&gt;+ getSavedPieceStyle() PieceStyleEnum&lt;br&gt;&lt;/u&gt;&lt;/p&gt;&lt;p style=&quot;margin: 0px ; margin-left: 4px&quot;&gt;&lt;u&gt;+ getSavedSoundVolume() double&lt;/u&gt;&lt;br&gt;&lt;/p&gt;" style="verticalAlign=top;align=left;overflow=fill;fontSize=12;fontFamily=Helvetica;html=1;shadow=1;" parent="1" vertex="1">
          <mxGeometry x="2072.5" y="1094" width="370" height="119" as="geometry" />
        </mxCell>
        <mxCell id="4gkbn8ZJmCfsS1XQk6z_-25" style="edgeStyle=orthogonalEdgeStyle;rounded=0;orthogonalLoop=1;jettySize=auto;html=1;shadow=1;endArrow=open;endFill=0;endSize=12;" parent="1" source="8tYOt1Tcwvkd_dsfKMtM-102" target="4gkbn8ZJmCfsS1XQk6z_-3" edge="1">
          <mxGeometry relative="1" as="geometry" />
        </mxCell>
        <mxCell id="4gkbn8ZJmCfsS1XQk6z_-27" style="edgeStyle=orthogonalEdgeStyle;rounded=0;orthogonalLoop=1;jettySize=auto;html=1;shadow=1;endArrow=none;endFill=0;endSize=12;" parent="1" source="8tYOt1Tcwvkd_dsfKMtM-102" edge="1">
          <mxGeometry relative="1" as="geometry">
            <mxPoint x="404" y="1695" as="targetPoint" />
            <Array as="points">
              <mxPoint x="404" y="1753" />
              <mxPoint x="404" y="1753" />
            </Array>
          </mxGeometry>
        </mxCell>
        <mxCell id="8tYOt1Tcwvkd_dsfKMtM-102" value="ApplicationStyle" style="swimlane;fontStyle=1;align=center;verticalAlign=top;childLayout=stackLayout;horizontal=1;startSize=26;horizontalStack=0;resizeParent=1;resizeParentMax=0;resizeLast=0;collapsible=1;marginBottom=0;fontSize=15;shadow=1;" parent="1" vertex="1">
          <mxGeometry x="45" y="1780" width="482" height="111" as="geometry" />
        </mxCell>
        <mxCell id="8tYOt1Tcwvkd_dsfKMtM-103" value="+ setApplicationStyle(ApplicationStyleConfigurationObjectStrategy : style)&#xa;+ getApplicationStyle() : ApplicationStyleConfigurationObjectStrategy&#xa;+ getCurrentPieceStylePath(): Path&#xa;+ getPieceStylePath(style:String): Optional&lt; ApplicationStyleConfigurationObjectStrategy &gt;&#xa;" style="text;strokeColor=none;fillColor=none;align=left;verticalAlign=top;spacingLeft=4;spacingRight=4;overflow=hidden;rotatable=0;points=[[0,0.5],[1,0.5]];portConstraint=eastwest;shadow=1;fontStyle=4" parent="8tYOt1Tcwvkd_dsfKMtM-102" vertex="1">
          <mxGeometry y="26" width="482" height="85" as="geometry" />
        </mxCell>
        <mxCell id="8tYOt1Tcwvkd_dsfKMtM-108" value="Sound" style="swimlane;fontStyle=1;align=center;verticalAlign=top;childLayout=stackLayout;horizontal=1;startSize=26;horizontalStack=0;resizeParent=1;resizeParentMax=0;resizeLast=0;collapsible=1;marginBottom=0;fontSize=15;shadow=1;" parent="1" vertex="1">
          <mxGeometry x="1374" y="1521" width="170" height="90" as="geometry" />
        </mxCell>
        <mxCell id="8tYOt1Tcwvkd_dsfKMtM-109" value="+ play(sound:SoundsEnum)&#xa;+ getVolume():double&#xa;+ setVolume(Volume:double)" style="text;strokeColor=none;fillColor=none;align=left;verticalAlign=top;spacingLeft=4;spacingRight=4;overflow=hidden;rotatable=0;points=[[0,0.5],[1,0.5]];portConstraint=eastwest;shadow=1;fontStyle=4" parent="8tYOt1Tcwvkd_dsfKMtM-108" vertex="1">
          <mxGeometry y="26" width="170" height="64" as="geometry" />
        </mxCell>
        <mxCell id="8tYOt1Tcwvkd_dsfKMtM-119" style="edgeStyle=none;rounded=0;orthogonalLoop=1;jettySize=auto;html=1;fontSize=15;endArrow=open;endFill=0;shadow=1;entryX=0.5;entryY=1;entryDx=0;entryDy=0;" parent="1" source="8tYOt1Tcwvkd_dsfKMtM-108" target="LNh817HpMAisNRS1A039-15" edge="1">
          <mxGeometry relative="1" as="geometry">
            <mxPoint x="1459" y="1486" as="targetPoint" />
          </mxGeometry>
        </mxCell>
        <mxCell id="8tYOt1Tcwvkd_dsfKMtM-162" style="edgeStyle=none;rounded=0;orthogonalLoop=1;jettySize=auto;html=1;entryX=1;entryY=0.5;entryDx=0;entryDy=0;startSize=6;endArrow=none;endFill=0;endSize=12;fontSize=15;shadow=1;exitX=0;exitY=0.5;exitDx=0;exitDy=0;" parent="1" source="LNh817HpMAisNRS1A039-17" target="8tYOt1Tcwvkd_dsfKMtM-11" edge="1">
          <mxGeometry relative="1" as="geometry">
            <mxPoint x="1185" y="490" as="sourcePoint" />
          </mxGeometry>
        </mxCell>
        <mxCell id="8tYOt1Tcwvkd_dsfKMtM-151" style="edgeStyle=none;rounded=0;orthogonalLoop=1;jettySize=auto;html=1;fontSize=15;entryX=0.5;entryY=0;entryDx=0;entryDy=0;endArrow=block;endFill=0;endSize=12;shadow=1;" parent="1" source="8tYOt1Tcwvkd_dsfKMtM-64" target="8tYOt1Tcwvkd_dsfKMtM-154" edge="1">
          <mxGeometry relative="1" as="geometry">
            <mxPoint x="2258" y="1432" as="targetPoint" />
          </mxGeometry>
        </mxCell>
        <mxCell id="8tYOt1Tcwvkd_dsfKMtM-146" style="edgeStyle=none;rounded=0;orthogonalLoop=1;jettySize=auto;html=1;exitX=0.5;exitY=1;exitDx=0;exitDy=0;fontSize=15;shadow=1;" parent="1" source="8tYOt1Tcwvkd_dsfKMtM-44" target="8tYOt1Tcwvkd_dsfKMtM-44" edge="1">
          <mxGeometry relative="1" as="geometry" />
        </mxCell>
        <mxCell id="8tYOt1Tcwvkd_dsfKMtM-190" style="edgeStyle=none;rounded=0;orthogonalLoop=1;jettySize=auto;html=1;startSize=6;endArrow=open;endFill=0;endSize=12;fontSize=15;shadow=1;" parent="1" source="8tYOt1Tcwvkd_dsfKMtM-154" target="8tYOt1Tcwvkd_dsfKMtM-175" edge="1">
          <mxGeometry relative="1" as="geometry" />
        </mxCell>
        <mxCell id="8tYOt1Tcwvkd_dsfKMtM-191" style="edgeStyle=none;rounded=0;orthogonalLoop=1;jettySize=auto;html=1;entryX=1;entryY=0.5;entryDx=0;entryDy=0;startSize=6;endArrow=open;endFill=0;endSize=12;fontSize=15;shadow=1;" parent="1" source="8tYOt1Tcwvkd_dsfKMtM-154" target="LNh817HpMAisNRS1A039-16" edge="1">
          <mxGeometry relative="1" as="geometry">
            <mxPoint x="2073.94" y="1453.5080000000003" as="targetPoint" />
          </mxGeometry>
        </mxCell>
        <mxCell id="8tYOt1Tcwvkd_dsfKMtM-154" value="&lt;p style=&quot;margin: 0px ; margin-top: 4px ; text-align: center&quot;&gt;&lt;i&gt;&amp;lt;&amp;lt;Abstract&amp;gt;&amp;gt;&lt;/i&gt;&lt;br&gt;&lt;span style=&quot;font-size: 15px ; font-weight: bold&quot;&gt;SettingDataStorageJson&lt;/span&gt;&lt;br&gt;&lt;/p&gt;&lt;hr size=&quot;1&quot;&gt;&lt;p style=&quot;margin: 0px ; margin-left: 4px&quot;&gt;# put(parameter SettingTypeEnum, value:String)&lt;br style=&quot;padding: 0px ; margin: 0px&quot;&gt;# getSettingValue(parameter SettingTypeEnum)&lt;br&gt;&lt;/p&gt;" style="verticalAlign=top;align=left;overflow=fill;fontSize=12;fontFamily=Helvetica;html=1;shadow=1;" parent="1" vertex="1">
          <mxGeometry x="2124" y="1411" width="267" height="87" as="geometry" />
        </mxCell>
        <mxCell id="8tYOt1Tcwvkd_dsfKMtM-175" value="DirectoryConfiguration" style="html=1;fontSize=15;shadow=1;" parent="1" vertex="1">
          <mxGeometry x="2442.5" y="1427" width="194.5" height="50" as="geometry" />
        </mxCell>
        <mxCell id="8tYOt1Tcwvkd_dsfKMtM-176" value="ReplayBuilder" style="swimlane;fontStyle=1;align=center;verticalAlign=top;childLayout=stackLayout;horizontal=1;startSize=26;horizontalStack=0;resizeParent=1;resizeParentMax=0;resizeLast=0;collapsible=1;marginBottom=0;fontSize=15;shadow=1;" parent="1" vertex="1">
          <mxGeometry x="2588" y="135" width="182" height="121" as="geometry" />
        </mxCell>
        <mxCell id="8tYOt1Tcwvkd_dsfKMtM-177" value="+ setMatchID(): String&#xa;+ setDate(): Date&#xa;+ setWhiteUser(): User&#xa;+ setBlackUser(): User&#xa;+ setBoards():List&lt;Board&gt;&#xa;+ setGameType(): GameType" style="text;strokeColor=none;fillColor=none;align=left;verticalAlign=top;spacingLeft=4;spacingRight=4;overflow=hidden;rotatable=0;points=[[0,0.5],[1,0.5]];portConstraint=eastwest;shadow=1;" parent="8tYOt1Tcwvkd_dsfKMtM-176" vertex="1">
          <mxGeometry y="26" width="182" height="95" as="geometry" />
        </mxCell>
        <mxCell id="8tYOt1Tcwvkd_dsfKMtM-182" style="edgeStyle=none;rounded=0;orthogonalLoop=1;jettySize=auto;html=1;startSize=6;endArrow=open;endFill=0;endSize=12;fontSize=15;exitX=1;exitY=0.5;exitDx=0;exitDy=0;shadow=1;" parent="1" source="8tYOt1Tcwvkd_dsfKMtM-44" target="8tYOt1Tcwvkd_dsfKMtM-180" edge="1">
          <mxGeometry relative="1" as="geometry" />
        </mxCell>
        <mxCell id="8tYOt1Tcwvkd_dsfKMtM-180" value="ReplayDataStorage" style="swimlane;fontStyle=1;align=center;verticalAlign=top;childLayout=stackLayout;horizontal=1;startSize=26;horizontalStack=0;resizeParent=1;resizeParentMax=0;resizeLast=0;collapsible=1;marginBottom=0;fontSize=15;shadow=1;" parent="1" vertex="1">
          <mxGeometry x="2135" y="419" width="289" height="82" as="geometry" />
        </mxCell>
        <mxCell id="8tYOt1Tcwvkd_dsfKMtM-181" value="+ put(match:ReplayData, id:String)&#xa;+ getAllBoard():&lt;Set&lt;ReplayData&gt;&gt;&#xa;+ getBoardPath(path:String):Optional&lt;ReplayData&gt;" style="text;strokeColor=none;fillColor=none;align=left;verticalAlign=top;spacingLeft=4;spacingRight=4;overflow=hidden;rotatable=0;points=[[0,0.5],[1,0.5]];portConstraint=eastwest;shadow=1;" parent="8tYOt1Tcwvkd_dsfKMtM-180" vertex="1">
          <mxGeometry y="26" width="289" height="56" as="geometry" />
        </mxCell>
        <mxCell id="8tYOt1Tcwvkd_dsfKMtM-184" style="edgeStyle=none;rounded=0;orthogonalLoop=1;jettySize=auto;html=1;exitX=0.5;exitY=0;exitDx=0;exitDy=0;dashed=1;startSize=6;endArrow=none;endFill=0;endSize=12;fontSize=15;shadow=1;" parent="1" source="8tYOt1Tcwvkd_dsfKMtM-180" target="8tYOt1Tcwvkd_dsfKMtM-180" edge="1">
          <mxGeometry relative="1" as="geometry" />
        </mxCell>
        <mxCell id="8tYOt1Tcwvkd_dsfKMtM-189" style="edgeStyle=none;rounded=0;orthogonalLoop=1;jettySize=auto;html=1;startSize=6;endArrow=open;endFill=0;endSize=12;fontSize=15;shadow=1;" parent="1" source="8tYOt1Tcwvkd_dsfKMtM-181" target="8tYOt1Tcwvkd_dsfKMtM-48" edge="1">
          <mxGeometry relative="1" as="geometry" />
        </mxCell>
        <mxCell id="LNh817HpMAisNRS1A039-7" value="" style="whiteSpace=wrap;html=1;aspect=fixed;shadow=1;" parent="1" vertex="1">
          <mxGeometry x="2371" y="1531" width="20" height="20" as="geometry" />
        </mxCell>
        <mxCell id="LNh817HpMAisNRS1A039-8" value="T" style="text;html=1;strokeColor=none;fillColor=none;align=center;verticalAlign=middle;whiteSpace=wrap;rounded=0;shadow=1;" parent="1" vertex="1">
          <mxGeometry x="2370" y="1531" width="22" height="20" as="geometry" />
        </mxCell>
        <mxCell id="LNh817HpMAisNRS1A039-15" value="&lt;p style=&quot;margin: 0px ; margin-top: 4px ; text-align: center&quot;&gt;&lt;i&gt;&amp;lt;&amp;lt;Enumeration&amp;gt;&amp;gt;&lt;/i&gt;&lt;br&gt;&lt;b&gt;SoundEnum&lt;/b&gt;&lt;/p&gt;&lt;hr size=&quot;1&quot;&gt;&lt;p style=&quot;margin: 0px ; margin-left: 4px&quot;&gt;+MOVE&lt;/p&gt;&lt;p style=&quot;margin: 0px ; margin-left: 4px&quot;&gt;+CHECK&lt;/p&gt;&lt;p style=&quot;margin: 0px ; margin-left: 4px&quot;&gt;+CHECKMATE&lt;/p&gt;&lt;p style=&quot;margin: 0px ; margin-left: 4px&quot;&gt;+CAPTURE&lt;/p&gt;&lt;p style=&quot;margin: 0px ; margin-left: 4px&quot;&gt;+ getSoundFileName():String&lt;br style=&quot;padding: 0px ; margin: 0px&quot;&gt;+ fromMovementResult(movementResult:MovementResult): SoundEnum&lt;br&gt;&lt;/p&gt;" style="verticalAlign=top;align=left;overflow=fill;fontSize=12;fontFamily=Helvetica;html=1;shadow=1;" parent="1" vertex="1">
          <mxGeometry x="1258.5" y="1348" width="401" height="140" as="geometry" />
        </mxCell>
        <mxCell id="LNh817HpMAisNRS1A039-16" value="&lt;p style=&quot;margin: 0px ; margin-top: 4px ; text-align: center&quot;&gt;&lt;i&gt;&amp;lt;&amp;lt;Enumeration&amp;gt;&amp;gt;&lt;/i&gt;&lt;br&gt;&lt;b&gt;SettingTypeEnum&lt;/b&gt;&lt;/p&gt;&lt;hr size=&quot;1&quot;&gt;&lt;p style=&quot;margin: 0px ; margin-left: 4px&quot;&gt;+APPLICATION_STYLE&lt;/p&gt;&lt;p style=&quot;margin: 0px ; margin-left: 4px&quot;&gt;+PIECE_STYLE&lt;/p&gt;&lt;p style=&quot;margin: 0px ; margin-left: 4px&quot;&gt;+SOUND_VOLUME&lt;/p&gt;&lt;p style=&quot;margin: 0px ; margin-left: 4px&quot;&gt;+ getSettingName():String&lt;br&gt;&lt;/p&gt;" style="verticalAlign=top;align=left;overflow=fill;fontSize=12;fontFamily=Helvetica;html=1;shadow=1;" parent="1" vertex="1">
          <mxGeometry x="1882.5" y="1401.75" width="190" height="105.5" as="geometry" />
        </mxCell>
        <mxCell id="LNh817HpMAisNRS1A039-17" value="&lt;p style=&quot;margin: 0px ; margin-top: 4px ; text-align: center&quot;&gt;&lt;i&gt;&amp;lt;&amp;lt;Enumeration&amp;gt;&amp;gt;&lt;/i&gt;&lt;br&gt;&lt;b&gt;DefaultTimer&lt;/b&gt;&lt;/p&gt;&lt;hr size=&quot;1&quot;&gt;&lt;p style=&quot;margin: 0px ; margin-left: 4px&quot;&gt;ONE_MINUTE&lt;/p&gt;&lt;p style=&quot;margin: 0px ; margin-left: 4px&quot;&gt;THREE_MINUTES&lt;/p&gt;&lt;p style=&quot;margin: 0px ; margin-left: 4px&quot;&gt;TEN_MINUTES&lt;/p&gt;&lt;p style=&quot;margin: 0px ; margin-left: 4px&quot;&gt;+ getTimer(players:Player):players&lt;br style=&quot;padding: 0px ; margin: 0px&quot;&gt;+ getSecond():double&lt;br&gt;&lt;/p&gt;" style="verticalAlign=top;align=left;overflow=fill;fontSize=12;fontFamily=Helvetica;html=1;shadow=1;" parent="1" vertex="1">
          <mxGeometry x="1152" y="428.5" width="190" height="123" as="geometry" />
        </mxCell>
        <mxCell id="4gkbn8ZJmCfsS1XQk6z_-19" style="edgeStyle=orthogonalEdgeStyle;rounded=0;orthogonalLoop=1;jettySize=auto;html=1;shadow=1;endArrow=open;endFill=0;endSize=12;" parent="1" source="4gkbn8ZJmCfsS1XQk6z_-1" target="4gkbn8ZJmCfsS1XQk6z_-12" edge="1">
          <mxGeometry relative="1" as="geometry" />
        </mxCell>
        <mxCell id="4gkbn8ZJmCfsS1XQk6z_-1" value="&lt;p style=&quot;margin: 0px ; margin-top: 4px ; text-align: center&quot;&gt;&lt;i&gt;&amp;lt;&amp;lt;Interface&amp;gt;&amp;gt;&lt;/i&gt;&lt;br&gt;&lt;b&gt;ConfigurationListStrategy&lt;/b&gt;&lt;/p&gt;&lt;hr size=&quot;1&quot;&gt;&lt;p style=&quot;margin: 0px ; margin-left: 4px&quot;&gt;+ getAllPath(): List&amp;lt;Path&amp;gt;&lt;/p&gt;&lt;p style=&quot;margin: 0px ; margin-left: 4px&quot;&gt;+ getAll():List&amp;lt;ConfigurationObjectStrategy&amp;gt;&lt;/p&gt;&lt;p style=&quot;margin: 0px ; margin-left: 4px&quot;&gt;+ getFolderPath():Path&lt;/p&gt;&lt;p style=&quot;margin: 0px ; margin-left: 4px&quot;&gt;&lt;br&gt;&lt;/p&gt;" style="verticalAlign=top;align=left;overflow=fill;fontSize=12;fontFamily=Helvetica;html=1;shadow=1;" parent="1" vertex="1">
          <mxGeometry x="-85.75" y="1416.25" width="241" height="91" as="geometry" />
        </mxCell>
        <mxCell id="4gkbn8ZJmCfsS1XQk6z_-29" style="edgeStyle=orthogonalEdgeStyle;rounded=0;orthogonalLoop=1;jettySize=auto;html=1;shadow=1;endArrow=none;endFill=0;endSize=12;" parent="1" source="4gkbn8ZJmCfsS1XQk6z_-2" edge="1">
          <mxGeometry relative="1" as="geometry">
            <mxPoint x="-331" y="1701" as="targetPoint" />
          </mxGeometry>
        </mxCell>
        <mxCell id="4gkbn8ZJmCfsS1XQk6z_-2" value="PieceStylePathsStrategy" style="html=1;shadow=1;align=left;" parent="1" vertex="1">
          <mxGeometry x="-214" y="1676" width="138" height="50" as="geometry" />
        </mxCell>
        <mxCell id="4gkbn8ZJmCfsS1XQk6z_-26" style="edgeStyle=orthogonalEdgeStyle;rounded=0;orthogonalLoop=1;jettySize=auto;html=1;entryX=0.666;entryY=1.067;entryDx=0;entryDy=0;entryPerimeter=0;shadow=1;endArrow=open;endFill=0;endSize=12;" parent="1" source="4gkbn8ZJmCfsS1XQk6z_-3" target="4gkbn8ZJmCfsS1XQk6z_-14" edge="1">
          <mxGeometry relative="1" as="geometry">
            <Array as="points">
              <mxPoint x="404" y="1701" />
              <mxPoint x="404" y="1490" />
            </Array>
          </mxGeometry>
        </mxCell>
        <mxCell id="4gkbn8ZJmCfsS1XQk6z_-3" value="ApplicationStyleListStrategy" style="html=1;shadow=1;align=left;" parent="1" vertex="1">
          <mxGeometry x="155.25" y="1676" width="153" height="50" as="geometry" />
        </mxCell>
        <mxCell id="4gkbn8ZJmCfsS1XQk6z_-5" style="edgeStyle=orthogonalEdgeStyle;rounded=0;orthogonalLoop=1;jettySize=auto;html=1;entryX=0.5;entryY=1;entryDx=0;entryDy=0;shadow=1;endArrow=block;endFill=0;dashed=1;endSize=12;" parent="1" source="4gkbn8ZJmCfsS1XQk6z_-4" target="4gkbn8ZJmCfsS1XQk6z_-1" edge="1">
          <mxGeometry relative="1" as="geometry" />
        </mxCell>
        <mxCell id="4gkbn8ZJmCfsS1XQk6z_-9" style="edgeStyle=orthogonalEdgeStyle;rounded=0;orthogonalLoop=1;jettySize=auto;html=1;entryX=0.25;entryY=0;entryDx=0;entryDy=0;shadow=1;dashed=1;endArrow=block;endFill=0;endSize=12;" parent="1" source="4gkbn8ZJmCfsS1XQk6z_-4" target="4gkbn8ZJmCfsS1XQk6z_-2" edge="1">
          <mxGeometry relative="1" as="geometry">
            <Array as="points">
              <mxPoint x="-116" y="1597" />
              <mxPoint x="-116" y="1646" />
              <mxPoint x="-180" y="1646" />
            </Array>
          </mxGeometry>
        </mxCell>
        <mxCell id="4gkbn8ZJmCfsS1XQk6z_-10" style="edgeStyle=orthogonalEdgeStyle;rounded=0;orthogonalLoop=1;jettySize=auto;html=1;shadow=1;dashed=1;endArrow=block;endFill=0;endSize=12;" parent="1" source="4gkbn8ZJmCfsS1XQk6z_-4" target="4gkbn8ZJmCfsS1XQk6z_-3" edge="1">
          <mxGeometry relative="1" as="geometry">
            <Array as="points">
              <mxPoint x="190" y="1601" />
              <mxPoint x="190" y="1646" />
              <mxPoint x="257" y="1646" />
            </Array>
          </mxGeometry>
        </mxCell>
        <mxCell id="4gkbn8ZJmCfsS1XQk6z_-4" value="&lt;p style=&quot;margin: 0px ; margin-top: 4px ; text-align: center&quot;&gt;&lt;i&gt;&amp;lt;&amp;lt;Abstract&amp;gt;&amp;gt;&lt;/i&gt;&lt;br&gt;&lt;span style=&quot;font-size: 15px&quot;&gt;&lt;b&gt;PathsFromDirectory&lt;/b&gt;&lt;/span&gt;&lt;/p&gt;# getFileFromDirectoryPath(path:Path): List&amp;lt;Path&amp;gt;" style="verticalAlign=top;align=left;overflow=fill;fontSize=12;fontFamily=Helvetica;html=1;shadow=1;" parent="1" vertex="1">
          <mxGeometry x="-101" y="1568" width="271.5" height="58" as="geometry" />
        </mxCell>
        <mxCell id="4gkbn8ZJmCfsS1XQk6z_-17" style="edgeStyle=orthogonalEdgeStyle;rounded=0;orthogonalLoop=1;jettySize=auto;html=1;shadow=1;dashed=1;endArrow=block;endFill=0;endSize=12;" parent="1" source="4gkbn8ZJmCfsS1XQk6z_-12" target="4gkbn8ZJmCfsS1XQk6z_-13" edge="1">
          <mxGeometry relative="1" as="geometry" />
        </mxCell>
        <mxCell id="4gkbn8ZJmCfsS1XQk6z_-23" style="edgeStyle=orthogonalEdgeStyle;rounded=0;orthogonalLoop=1;jettySize=auto;html=1;shadow=1;endArrow=block;endFill=0;endSize=12;dashed=1;" parent="1" source="4gkbn8ZJmCfsS1XQk6z_-12" target="4gkbn8ZJmCfsS1XQk6z_-21" edge="1">
          <mxGeometry relative="1" as="geometry" />
        </mxCell>
        <mxCell id="4gkbn8ZJmCfsS1XQk6z_-12" value="&lt;p style=&quot;margin: 0px ; margin-top: 4px ; text-align: center&quot;&gt;&lt;i&gt;&amp;lt;&amp;lt;Interface&amp;gt;&amp;gt;&lt;/i&gt;&lt;br&gt;&lt;b&gt;ConfigurationObjectStrategy&lt;/b&gt;&lt;/p&gt;&lt;hr size=&quot;1&quot;&gt;&lt;p style=&quot;margin: 0px ; margin-left: 4px&quot;&gt;+ getPath(): Path&lt;/p&gt;&lt;p style=&quot;margin: 0px ; margin-left: 4px&quot;&gt;+ getFilePath(): Path&lt;/p&gt;&lt;p style=&quot;margin: 0px ; margin-left: 4px&quot;&gt;+ getName(): String&lt;/p&gt;&lt;p style=&quot;margin: 0px ; margin-left: 4px&quot;&gt;+ getFileName(): String&lt;/p&gt;" style="verticalAlign=top;align=left;overflow=fill;fontSize=12;fontFamily=Helvetica;html=1;shadow=1;" parent="1" vertex="1">
          <mxGeometry x="-60.25" y="1247" width="190" height="109" as="geometry" />
        </mxCell>
        <mxCell id="4gkbn8ZJmCfsS1XQk6z_-13" value="ApplicationStyleConfigurationObjectStrategy" style="swimlane;fontStyle=1;align=center;verticalAlign=top;childLayout=stackLayout;horizontal=1;startSize=26;horizontalStack=0;resizeParent=1;resizeParentMax=0;resizeLast=0;collapsible=1;marginBottom=0;shadow=1;" parent="1" vertex="1">
          <mxGeometry x="221" y="1427" width="275" height="52" as="geometry" />
        </mxCell>
        <mxCell id="4gkbn8ZJmCfsS1XQk6z_-14" value="+ ApplicationStorageStrategy(filename:value)" style="text;strokeColor=none;fillColor=none;align=left;verticalAlign=top;spacingLeft=4;spacingRight=4;overflow=hidden;rotatable=0;points=[[0,0.5],[1,0.5]];portConstraint=eastwest;" parent="4gkbn8ZJmCfsS1XQk6z_-13" vertex="1">
          <mxGeometry y="26" width="275" height="26" as="geometry" />
        </mxCell>
        <mxCell id="4gkbn8ZJmCfsS1XQk6z_-21" value="PieceStyleConfigurationObjectStrategy" style="swimlane;fontStyle=1;align=center;verticalAlign=top;childLayout=stackLayout;horizontal=1;startSize=26;horizontalStack=0;resizeParent=1;resizeParentMax=0;resizeLast=0;collapsible=1;marginBottom=0;shadow=1;" parent="1" vertex="1">
          <mxGeometry x="-424" y="1425.5" width="241" height="55" as="geometry" />
        </mxCell>
        <mxCell id="4gkbn8ZJmCfsS1XQk6z_-22" value="+ PieceStorageStrategy(filename:value)" style="text;strokeColor=none;fillColor=none;align=left;verticalAlign=top;spacingLeft=4;spacingRight=4;overflow=hidden;rotatable=0;points=[[0,0.5],[1,0.5]];portConstraint=eastwest;" parent="4gkbn8ZJmCfsS1XQk6z_-21" vertex="1">
          <mxGeometry y="26" width="241" height="29" as="geometry" />
        </mxCell>
      </root>
    </mxGraphModel>
  </diagram>
  <diagram id="S0YJEAdkQzzZumbn4qaC" name="Timer">
    <mxGraphModel dx="1773" dy="645" grid="1" gridSize="10" guides="1" tooltips="1" connect="1" arrows="1" fold="1" page="1" pageScale="1" pageWidth="827" pageHeight="1169" math="0" shadow="0">
      <root>
        <mxCell id="-CSUmPOUxY8qgTKARNtd-0" />
        <mxCell id="-CSUmPOUxY8qgTKARNtd-1" parent="-CSUmPOUxY8qgTKARNtd-0" />
        <mxCell id="y0Bj2_c963Vbhwfu-XTR-0" style="edgeStyle=none;rounded=0;orthogonalLoop=1;jettySize=auto;html=1;exitX=0;exitY=0.5;exitDx=0;exitDy=0;fontSize=15;dashed=1;endArrow=block;endFill=0;entryX=0;entryY=0.5;entryDx=0;entryDy=0;endSize=12;shadow=1;" parent="-CSUmPOUxY8qgTKARNtd-1" source="y0Bj2_c963Vbhwfu-XTR-4" target="y0Bj2_c963Vbhwfu-XTR-3" edge="1">
          <mxGeometry relative="1" as="geometry">
            <mxPoint x="658" y="265" as="sourcePoint" />
          </mxGeometry>
        </mxCell>
        <mxCell id="y0Bj2_c963Vbhwfu-XTR-1" style="edgeStyle=none;rounded=0;orthogonalLoop=1;jettySize=auto;html=1;fontSize=15;endArrow=diamond;endFill=0;endSize=12;startSize=6;shadow=1;" parent="-CSUmPOUxY8qgTKARNtd-1" source="y0Bj2_c963Vbhwfu-XTR-3" target="y0Bj2_c963Vbhwfu-XTR-9" edge="1">
          <mxGeometry relative="1" as="geometry">
            <mxPoint x="208" y="271" as="targetPoint" />
          </mxGeometry>
        </mxCell>
        <mxCell id="y0Bj2_c963Vbhwfu-XTR-2" value="" style="edgeStyle=none;rounded=0;orthogonalLoop=1;jettySize=auto;html=1;fontSize=15;endArrow=open;endFill=0;dashed=1;shadow=1;endSize=12;entryX=0.5;entryY=1;entryDx=0;entryDy=0;" parent="-CSUmPOUxY8qgTKARNtd-1" source="y0Bj2_c963Vbhwfu-XTR-6" target="y0Bj2_c963Vbhwfu-XTR-3" edge="1">
          <mxGeometry x="0.0291" y="-19" relative="1" as="geometry">
            <mxPoint x="1" as="offset" />
          </mxGeometry>
        </mxCell>
        <mxCell id="y0Bj2_c963Vbhwfu-XTR-3" value="&lt;p style=&quot;margin: 0px ; margin-top: 4px ; text-align: center&quot;&gt;&lt;i&gt;&amp;lt;&amp;lt;Interface&amp;gt;&amp;gt;&lt;/i&gt;&lt;br&gt;&lt;b&gt;Timer&lt;/b&gt;&lt;/p&gt;&lt;hr size=&quot;1&quot;&gt;&lt;p style=&quot;margin: 0px ; margin-left: 4px&quot;&gt;&lt;/p&gt;&lt;p style=&quot;margin: 0px ; margin-left: 4px&quot;&gt;+ getRemaningTime(player: Player)&lt;/p&gt;&lt;p style=&quot;margin: 0px ; margin-left: 4px&quot;&gt;+ start()&lt;/p&gt;&lt;p style=&quot;margin: 0px ; margin-left: 4px&quot;&gt;+ stop()&lt;/p&gt;&lt;p style=&quot;margin: 0px ; margin-left: 4px&quot;&gt;+ isRunning(): boolean&lt;/p&gt;&lt;p style=&quot;margin: 0px ; margin-left: 4px&quot;&gt;+ switchPlayer(player: Player)&lt;/p&gt;&lt;p style=&quot;margin: 0px ; margin-left: 4px&quot;&gt;+ isModifiable(): boolean&lt;/p&gt;&lt;p style=&quot;margin: 0px ; margin-left: 4px&quot;&gt;+ setModifiable(modifiable: boolean)&lt;/p&gt;&lt;p style=&quot;margin: 0px ; margin-left: 4px&quot;&gt;+ setIncrement(increment: int)&lt;/p&gt;&lt;p style=&quot;margin: 0px ; margin-left: 4px&quot;&gt;+ getIncrement(): int&lt;/p&gt;&lt;p style=&quot;margin: 0px ; margin-left: 4px&quot;&gt;+ updatePlayerTime(player: Player, seconds: double)&lt;/p&gt;&lt;p style=&quot;margin: 0px ; margin-left: 4px&quot;&gt;+ addTimerToPlayer(player: Player, seconds: double)&lt;/p&gt;&lt;p style=&quot;margin: 0px ; margin-left: 4px&quot;&gt;+ getPlayersWithoutTime(): Optional&amp;lt;Player&amp;gt;&lt;/p&gt;" style="verticalAlign=top;align=left;overflow=fill;fontSize=12;fontFamily=Helvetica;html=1;shadow=1;" parent="-CSUmPOUxY8qgTKARNtd-1" vertex="1">
          <mxGeometry x="243" y="155" width="315" height="220" as="geometry" />
        </mxCell>
        <mxCell id="y0Bj2_c963Vbhwfu-XTR-4" value="&lt;b&gt;TimerImpl&lt;/b&gt;" style="html=1;fontSize=15;shadow=1;" parent="-CSUmPOUxY8qgTKARNtd-1" vertex="1">
          <mxGeometry x="10" y="240" width="110" height="50" as="geometry" />
        </mxCell>
        <mxCell id="y0Bj2_c963Vbhwfu-XTR-5" style="edgeStyle=none;rounded=0;orthogonalLoop=1;jettySize=auto;html=1;fontSize=15;dashed=1;endArrow=block;endFill=0;endSize=12;entryX=0;entryY=0.5;entryDx=0;entryDy=0;shadow=1;" parent="-CSUmPOUxY8qgTKARNtd-1" source="y0Bj2_c963Vbhwfu-XTR-8" target="y0Bj2_c963Vbhwfu-XTR-6" edge="1">
          <mxGeometry relative="1" as="geometry">
            <Array as="points" />
          </mxGeometry>
        </mxCell>
        <mxCell id="P3hQh6QoCIIxXPFRqGP1-0" value="produces" style="edgeStyle=orthogonalEdgeStyle;rounded=0;orthogonalLoop=1;jettySize=auto;html=1;endArrow=open;endFill=0;endSize=12;" parent="-CSUmPOUxY8qgTKARNtd-1" source="y0Bj2_c963Vbhwfu-XTR-6" target="y0Bj2_c963Vbhwfu-XTR-3" edge="1">
          <mxGeometry x="-0.3592" relative="1" as="geometry">
            <mxPoint y="1" as="offset" />
          </mxGeometry>
        </mxCell>
        <mxCell id="y0Bj2_c963Vbhwfu-XTR-6" value="&lt;p style=&quot;margin: 0px ; margin-top: 4px ; text-align: center&quot;&gt;&lt;i&gt;&amp;lt;&amp;lt;Interface&amp;gt;&amp;gt;&lt;/i&gt;&lt;br&gt;&lt;b&gt;TimerFactory&lt;/b&gt;&lt;/p&gt;&lt;hr size=&quot;1&quot;&gt;&lt;p style=&quot;margin: 0px ; margin-left: 4px&quot;&gt;+ defaultTimer(players: List&amp;lt;Player&amp;gt;): Timer&lt;/p&gt;&lt;p style=&quot;margin: 0px ; margin-left: 4px&quot;&gt;+ equalTimer(players: List&amp;lt;Player&amp;gt;, duration: double): Timer&lt;/p&gt;&lt;p style=&quot;margin: 0px ; margin-left: 4px&quot;&gt;+ incrementTimer(players: List&amp;lt;Player&amp;gt;, duration: double, increment: int): Timer&lt;/p&gt;&lt;p style=&quot;margin: 0px ; margin-left: 4px&quot;&gt;+ fromTimerMap(playersTimer: Map&amp;lt;Player, Double&amp;gt;): Timer&lt;/p&gt;&lt;p style=&quot;margin: 0px ; margin-left: 4px&quot;&gt;&lt;br&gt;&lt;/p&gt;" style="verticalAlign=top;align=left;overflow=fill;fontSize=12;fontFamily=Helvetica;html=1;shadow=1;" parent="-CSUmPOUxY8qgTKARNtd-1" vertex="1">
          <mxGeometry x="185.5" y="426.5" width="430" height="110" as="geometry" />
        </mxCell>
        <mxCell id="y0Bj2_c963Vbhwfu-XTR-7" style="edgeStyle=none;rounded=0;orthogonalLoop=1;jettySize=auto;html=1;exitX=0.5;exitY=1;exitDx=0;exitDy=0;fontSize=15;shadow=1;" parent="-CSUmPOUxY8qgTKARNtd-1" source="y0Bj2_c963Vbhwfu-XTR-6" target="y0Bj2_c963Vbhwfu-XTR-6" edge="1">
          <mxGeometry relative="1" as="geometry" />
        </mxCell>
        <mxCell id="y0Bj2_c963Vbhwfu-XTR-8" value="&lt;b&gt;TimerFactoryImpl&lt;/b&gt;" style="html=1;fontSize=15;shadow=1;" parent="-CSUmPOUxY8qgTKARNtd-1" vertex="1">
          <mxGeometry x="10" y="456.5" width="137" height="50" as="geometry" />
        </mxCell>
        <mxCell id="y0Bj2_c963Vbhwfu-XTR-9" value="TimerThread" style="swimlane;fontStyle=1;childLayout=stackLayout;horizontal=1;startSize=26;fillColor=none;horizontalStack=0;resizeParent=1;resizeParentMax=0;resizeLast=0;collapsible=1;marginBottom=0;fontSize=15;shadow=1;" parent="-CSUmPOUxY8qgTKARNtd-1" vertex="1">
          <mxGeometry x="190.5" y="40" width="420" height="70" as="geometry" />
        </mxCell>
        <mxCell id="y0Bj2_c963Vbhwfu-XTR-10" value="+ TimerThread(timer: Timer, callBack: Runnable, remainingTimer: Runnable)&#xa;+ run()" style="text;strokeColor=none;fillColor=none;align=left;verticalAlign=top;spacingLeft=4;spacingRight=4;overflow=hidden;rotatable=0;points=[[0,0.5],[1,0.5]];portConstraint=eastwest;shadow=1;" parent="y0Bj2_c963Vbhwfu-XTR-9" vertex="1">
          <mxGeometry y="26" width="420" height="44" as="geometry" />
        </mxCell>
        <mxCell id="y0Bj2_c963Vbhwfu-XTR-11" style="edgeStyle=none;rounded=0;orthogonalLoop=1;jettySize=auto;html=1;exitX=0.5;exitY=1;exitDx=0;exitDy=0;fontSize=15;shadow=1;" parent="-CSUmPOUxY8qgTKARNtd-1" source="y0Bj2_c963Vbhwfu-XTR-6" target="y0Bj2_c963Vbhwfu-XTR-6" edge="1">
          <mxGeometry relative="1" as="geometry" />
        </mxCell>
        <mxCell id="y0Bj2_c963Vbhwfu-XTR-12" value="&lt;font style=&quot;font-size: 12px&quot;&gt;uses&lt;/font&gt;" style="edgeStyle=none;rounded=0;orthogonalLoop=1;jettySize=auto;html=1;entryX=0.5;entryY=1;entryDx=0;entryDy=0;startSize=6;endArrow=open;endFill=0;endSize=12;fontSize=15;shadow=1;exitX=0.5;exitY=0;exitDx=0;exitDy=0;" parent="-CSUmPOUxY8qgTKARNtd-1" source="y0Bj2_c963Vbhwfu-XTR-13" target="y0Bj2_c963Vbhwfu-XTR-6" edge="1">
          <mxGeometry relative="1" as="geometry">
            <mxPoint x="670" y="475" as="sourcePoint" />
          </mxGeometry>
        </mxCell>
        <mxCell id="y0Bj2_c963Vbhwfu-XTR-13" value="&lt;p style=&quot;margin: 0px ; margin-top: 4px ; text-align: center&quot;&gt;&lt;i&gt;&amp;lt;&amp;lt;Enumeration&amp;gt;&amp;gt;&lt;/i&gt;&lt;br&gt;&lt;b&gt;DefaultTimer&lt;/b&gt;&lt;/p&gt;&lt;hr size=&quot;1&quot;&gt;&lt;p style=&quot;margin: 0px ; margin-left: 4px&quot;&gt;+ ONE_MINUTE&lt;/p&gt;&lt;p style=&quot;margin: 0px ; margin-left: 4px&quot;&gt;+ THREE_MINUTES&lt;/p&gt;&lt;p style=&quot;margin: 0px ; margin-left: 4px&quot;&gt;+ TEN_MINUTES&lt;/p&gt;&lt;p style=&quot;margin: 0px ; margin-left: 4px&quot;&gt;+ getTimer(players: Player): Timer&lt;br style=&quot;padding: 0px ; margin: 0px&quot;&gt;+ getSeconds(): double&lt;br&gt;&lt;/p&gt;" style="verticalAlign=top;align=left;overflow=fill;fontSize=12;fontFamily=Helvetica;html=1;shadow=1;" parent="-CSUmPOUxY8qgTKARNtd-1" vertex="1">
          <mxGeometry x="299" y="590" width="203" height="123" as="geometry" />
        </mxCell>
      </root>
    </mxGraphModel>
  </diagram>
  <diagram id="5WdL179nKmOh8zA3T1P-" name="Replay">
    <mxGraphModel dx="119" dy="645" grid="1" gridSize="10" guides="1" tooltips="1" connect="1" arrows="1" fold="1" page="1" pageScale="1" pageWidth="827" pageHeight="1169" math="0" shadow="0">
      <root>
        <mxCell id="CG4mooKPy4mKDSuZqK4f-0" />
        <mxCell id="CG4mooKPy4mKDSuZqK4f-1" parent="CG4mooKPy4mKDSuZqK4f-0" />
        <mxCell id="xfvJeQP-c45oL9RaARtc-1" value="ReplayData" style="swimlane;fontStyle=1;align=center;verticalAlign=top;childLayout=stackLayout;horizontal=1;startSize=26;horizontalStack=0;resizeParent=1;resizeParentMax=0;resizeLast=0;collapsible=1;marginBottom=0;fontSize=15;shadow=1;" parent="CG4mooKPy4mKDSuZqK4f-1" vertex="1">
          <mxGeometry x="1654" y="133" width="680" height="140" as="geometry" />
        </mxCell>
        <mxCell id="xfvJeQP-c45oL9RaARtc-2" value="+ ReplayData(matchID: String, date: Date, whiteUser: User, blackUser: User, boards: List&lt;Board&gt;,  gametype: GameType)&#xa;+ getMatchID(): String&#xa;+ getDate(): Date&#xa;+ getWhiteUser(): User&#xa;+ getBlackUser(): User&#xa;+ getBoards(): List&lt;Board&gt;&#xa;+ getGameType(): GameType" style="text;strokeColor=none;fillColor=none;align=left;verticalAlign=top;spacingLeft=4;spacingRight=4;overflow=hidden;rotatable=0;points=[[0,0.5],[1,0.5]];portConstraint=eastwest;shadow=1;" parent="xfvJeQP-c45oL9RaARtc-1" vertex="1">
          <mxGeometry y="26" width="680" height="114" as="geometry" />
        </mxCell>
        <mxCell id="xfvJeQP-c45oL9RaARtc-3" value="&lt;font style=&quot;font-size: 12px&quot;&gt;creates&lt;/font&gt;" style="edgeStyle=none;rounded=0;orthogonalLoop=1;jettySize=auto;html=1;entryX=0.5;entryY=0;entryDx=0;entryDy=0;fontSize=15;endArrow=open;endFill=0;shadow=1;exitX=0.5;exitY=0;exitDx=0;exitDy=0;endSize=12;" parent="CG4mooKPy4mKDSuZqK4f-1" source="xfvJeQP-c45oL9RaARtc-10" edge="1">
          <mxGeometry relative="1" as="geometry">
            <mxPoint x="2164" y="272" as="targetPoint" />
            <mxPoint x="2365" y="216" as="sourcePoint" />
          </mxGeometry>
        </mxCell>
        <mxCell id="xfvJeQP-c45oL9RaARtc-4" style="edgeStyle=none;rounded=0;orthogonalLoop=1;jettySize=auto;html=1;entryX=0.179;entryY=1.009;entryDx=0;entryDy=0;entryPerimeter=0;dashed=1;startSize=6;endArrow=open;endFill=0;endSize=12;fontSize=15;shadow=1;" parent="CG4mooKPy4mKDSuZqK4f-1" source="xfvJeQP-c45oL9RaARtc-5" target="xfvJeQP-c45oL9RaARtc-2" edge="1">
          <mxGeometry relative="1" as="geometry" />
        </mxCell>
        <mxCell id="C0fbTDwongM9BCXUHiR_-1" value="uses" style="edgeLabel;html=1;align=center;verticalAlign=middle;resizable=0;points=[];" parent="xfvJeQP-c45oL9RaARtc-4" vertex="1" connectable="0">
          <mxGeometry x="-0.0286" y="-3" relative="1" as="geometry">
            <mxPoint as="offset" />
          </mxGeometry>
        </mxCell>
        <mxCell id="xfvJeQP-c45oL9RaARtc-5" value="&lt;p style=&quot;margin: 0px ; margin-top: 4px ; text-align: center&quot;&gt;&lt;i&gt;&amp;lt;&amp;lt;Interface&amp;gt;&amp;gt;&lt;/i&gt;&lt;br&gt;&lt;b&gt;SavedReplay&lt;/b&gt;&lt;/p&gt;&lt;hr size=&quot;1&quot;&gt;&lt;p style=&quot;margin: 0px ; margin-left: 4px&quot;&gt;+ save(replayData: ReplayData)&lt;/p&gt;&lt;p style=&quot;margin: 0px ; margin-left: 4px&quot;&gt;+ getSaved(matchID: String): ReplayData&lt;/p&gt;&lt;p style=&quot;margin: 0px ; margin-left: 4px&quot;&gt;+ getAllBoards(): Set&amp;lt;ReplayData&amp;gt;&lt;/p&gt;" style="verticalAlign=top;align=left;overflow=fill;fontSize=12;fontFamily=Helvetica;html=1;shadow=1;" parent="CG4mooKPy4mKDSuZqK4f-1" vertex="1">
          <mxGeometry x="1654" y="320" width="240" height="91" as="geometry" />
        </mxCell>
        <mxCell id="xfvJeQP-c45oL9RaARtc-6" style="edgeStyle=none;rounded=0;orthogonalLoop=1;jettySize=auto;html=1;entryX=0.5;entryY=1;entryDx=0;entryDy=0;endArrow=block;endFill=0;fontSize=15;endSize=12;dashed=1;shadow=1;" parent="CG4mooKPy4mKDSuZqK4f-1" source="xfvJeQP-c45oL9RaARtc-7" target="xfvJeQP-c45oL9RaARtc-5" edge="1">
          <mxGeometry relative="1" as="geometry" />
        </mxCell>
        <mxCell id="xfvJeQP-c45oL9RaARtc-7" value="&lt;b&gt;SavedReplayImpl&lt;/b&gt;" style="html=1;fontSize=15;shadow=1;" parent="CG4mooKPy4mKDSuZqK4f-1" vertex="1">
          <mxGeometry x="1698" y="452" width="152" height="50" as="geometry" />
        </mxCell>
        <mxCell id="xfvJeQP-c45oL9RaARtc-8" value="&lt;b&gt;DirectoryConfiguration&lt;/b&gt;" style="html=1;fontSize=15;shadow=1;" parent="CG4mooKPy4mKDSuZqK4f-1" vertex="1">
          <mxGeometry x="2000" y="589" width="180" height="50" as="geometry" />
        </mxCell>
        <mxCell id="xfvJeQP-c45oL9RaARtc-9" style="edgeStyle=none;rounded=0;orthogonalLoop=1;jettySize=auto;html=1;exitX=0.5;exitY=1;exitDx=0;exitDy=0;fontSize=15;shadow=1;" parent="CG4mooKPy4mKDSuZqK4f-1" source="xfvJeQP-c45oL9RaARtc-7" target="xfvJeQP-c45oL9RaARtc-7" edge="1">
          <mxGeometry relative="1" as="geometry" />
        </mxCell>
        <mxCell id="xfvJeQP-c45oL9RaARtc-10" value="ReplayBuilder" style="swimlane;fontStyle=1;align=center;verticalAlign=top;childLayout=stackLayout;horizontal=1;startSize=26;horizontalStack=0;resizeParent=1;resizeParentMax=0;resizeLast=0;collapsible=1;marginBottom=0;fontSize=15;shadow=1;" parent="CG4mooKPy4mKDSuZqK4f-1" vertex="1">
          <mxGeometry x="2014" y="340" width="300" height="121" as="geometry">
            <mxRectangle x="2014" y="340" width="130" height="26" as="alternateBounds" />
          </mxGeometry>
        </mxCell>
        <mxCell id="xfvJeQP-c45oL9RaARtc-11" value="+ matchID(id: String): ReplayBuilder &#xa;+ date(date: Date): ReplayBuilder&#xa;+ whiteUser(whiteUser: User): ReplayBuilder&#xa;+ blackUser(blackUser: User): ReplayBuilder&#xa;+ boards(boards: List&lt;Board&gt;): ReplayBuilder&#xa;+ gameType(gameType: GameType): ReplayBuilder" style="text;strokeColor=none;fillColor=none;align=left;verticalAlign=top;spacingLeft=4;spacingRight=4;overflow=hidden;rotatable=0;points=[[0,0.5],[1,0.5]];portConstraint=eastwest;shadow=1;" parent="xfvJeQP-c45oL9RaARtc-10" vertex="1">
          <mxGeometry y="26" width="300" height="95" as="geometry" />
        </mxCell>
        <mxCell id="xfvJeQP-c45oL9RaARtc-12" value="&lt;font style=&quot;font-size: 12px&quot;&gt;uses&lt;/font&gt;" style="edgeStyle=none;rounded=0;orthogonalLoop=1;jettySize=auto;html=1;startSize=6;endArrow=open;endFill=0;endSize=12;fontSize=15;exitX=0.5;exitY=1;exitDx=0;exitDy=0;shadow=1;" parent="CG4mooKPy4mKDSuZqK4f-1" source="xfvJeQP-c45oL9RaARtc-7" target="xfvJeQP-c45oL9RaARtc-13" edge="1">
          <mxGeometry relative="1" as="geometry" />
        </mxCell>
        <mxCell id="xfvJeQP-c45oL9RaARtc-13" value="ReplayDataStorage" style="swimlane;fontStyle=1;align=center;verticalAlign=top;childLayout=stackLayout;horizontal=1;startSize=26;horizontalStack=0;resizeParent=1;resizeParentMax=0;resizeLast=0;collapsible=1;marginBottom=0;fontSize=15;shadow=1;" parent="CG4mooKPy4mKDSuZqK4f-1" vertex="1">
          <mxGeometry x="1624" y="557" width="300" height="82" as="geometry" />
        </mxCell>
        <mxCell id="xfvJeQP-c45oL9RaARtc-14" value="+ put(match: ReplayData, id: String)&#xa;+ getAllBoard(): Set&lt;ReplayData&gt;&#xa;+ getBoardPath(path: String): Optional&lt;ReplayData&gt;" style="text;strokeColor=none;fillColor=none;align=left;verticalAlign=top;spacingLeft=4;spacingRight=4;overflow=hidden;rotatable=0;points=[[0,0.5],[1,0.5]];portConstraint=eastwest;shadow=1;" parent="xfvJeQP-c45oL9RaARtc-13" vertex="1">
          <mxGeometry y="26" width="300" height="56" as="geometry" />
        </mxCell>
        <mxCell id="xfvJeQP-c45oL9RaARtc-15" style="edgeStyle=none;rounded=0;orthogonalLoop=1;jettySize=auto;html=1;exitX=0.5;exitY=0;exitDx=0;exitDy=0;dashed=1;startSize=6;endArrow=none;endFill=0;endSize=12;fontSize=15;shadow=1;" parent="CG4mooKPy4mKDSuZqK4f-1" source="xfvJeQP-c45oL9RaARtc-13" target="xfvJeQP-c45oL9RaARtc-13" edge="1">
          <mxGeometry relative="1" as="geometry" />
        </mxCell>
        <mxCell id="xfvJeQP-c45oL9RaARtc-16" style="edgeStyle=none;rounded=0;orthogonalLoop=1;jettySize=auto;html=1;startSize=6;endArrow=open;endFill=0;endSize=12;fontSize=15;shadow=1;" parent="CG4mooKPy4mKDSuZqK4f-1" source="xfvJeQP-c45oL9RaARtc-14" target="xfvJeQP-c45oL9RaARtc-8" edge="1">
          <mxGeometry relative="1" as="geometry" />
        </mxCell>
        <mxCell id="C0fbTDwongM9BCXUHiR_-2" value="uses" style="edgeLabel;html=1;align=center;verticalAlign=middle;resizable=0;points=[];" parent="xfvJeQP-c45oL9RaARtc-16" vertex="1" connectable="0">
          <mxGeometry x="-0.0303" y="-2" relative="1" as="geometry">
            <mxPoint as="offset" />
          </mxGeometry>
        </mxCell>
      </root>
    </mxGraphModel>
  </diagram>
  <diagram id="aJkATgmka5QqdYMaa_vt" name="style">
    <mxGraphModel dx="2600" dy="-524" grid="1" gridSize="10" guides="1" tooltips="1" connect="1" arrows="1" fold="1" page="1" pageScale="1" pageWidth="827" pageHeight="1169" math="0" shadow="0">
      <root>
        <mxCell id="kpHvmOQSyNTcDg02eDS4-0" />
        <mxCell id="kpHvmOQSyNTcDg02eDS4-1" parent="kpHvmOQSyNTcDg02eDS4-0" />
        <mxCell id="HbcSAZgbtxkKeq7WqleZ-0" value="uses" style="edgeStyle=orthogonalEdgeStyle;rounded=0;orthogonalLoop=1;jettySize=auto;html=1;shadow=1;endArrow=open;endFill=0;endSize=12;" parent="kpHvmOQSyNTcDg02eDS4-1" source="HbcSAZgbtxkKeq7WqleZ-2" target="HbcSAZgbtxkKeq7WqleZ-11" edge="1">
          <mxGeometry relative="1" as="geometry" />
        </mxCell>
        <mxCell id="HbcSAZgbtxkKeq7WqleZ-1" value="uses" style="edgeStyle=orthogonalEdgeStyle;rounded=0;orthogonalLoop=1;jettySize=auto;html=1;shadow=1;endArrow=open;endFill=0;endSize=12;" parent="kpHvmOQSyNTcDg02eDS4-1" source="HbcSAZgbtxkKeq7WqleZ-2" edge="1">
          <mxGeometry relative="1" as="geometry">
            <mxPoint x="-860" y="1423" as="targetPoint" />
            <Array as="points">
              <mxPoint x="-860" y="1655" />
              <mxPoint x="-860" y="1655" />
            </Array>
          </mxGeometry>
        </mxCell>
        <mxCell id="HbcSAZgbtxkKeq7WqleZ-2" value="PieceStyle" style="swimlane;fontStyle=1;align=center;verticalAlign=top;childLayout=stackLayout;horizontal=1;startSize=26;horizontalStack=0;resizeParent=1;resizeParentMax=0;resizeLast=0;collapsible=1;marginBottom=0;fontSize=15;shadow=1;" parent="kpHvmOQSyNTcDg02eDS4-1" vertex="1">
          <mxGeometry x="-1006" y="1723" width="520" height="110" as="geometry" />
        </mxCell>
        <mxCell id="HbcSAZgbtxkKeq7WqleZ-3" value="+ setPieceStyle(style: PieceStyleconfigurationObjectStrategy)&#xa;+ getPieceStyle(): PieceStyleconfigurationObjectStrategy&#xa;+ getPieceStylePath(): Path&#xa;+ getCurrentPieceStylePath(piece: PieceType, pieceColor: PlayerColor): Path&#xa;+ getPieceStylePath(style: PieceStyleEnum, piece: PieceType, pieceColor: PlayerColor): Path" style="text;strokeColor=none;fillColor=none;align=left;verticalAlign=top;spacingLeft=4;spacingRight=4;overflow=hidden;rotatable=0;points=[[0,0.5],[1,0.5]];portConstraint=eastwest;shadow=1;fontStyle=4" parent="HbcSAZgbtxkKeq7WqleZ-2" vertex="1">
          <mxGeometry y="26" width="520" height="84" as="geometry" />
        </mxCell>
        <mxCell id="HbcSAZgbtxkKeq7WqleZ-4" value="uses" style="edgeStyle=orthogonalEdgeStyle;rounded=0;orthogonalLoop=1;jettySize=auto;html=1;shadow=1;endArrow=open;endFill=0;endSize=12;" parent="kpHvmOQSyNTcDg02eDS4-1" source="HbcSAZgbtxkKeq7WqleZ-6" target="HbcSAZgbtxkKeq7WqleZ-13" edge="1">
          <mxGeometry relative="1" as="geometry" />
        </mxCell>
        <mxCell id="HbcSAZgbtxkKeq7WqleZ-5" style="edgeStyle=orthogonalEdgeStyle;rounded=0;orthogonalLoop=1;jettySize=auto;html=1;shadow=1;endArrow=none;endFill=0;endSize=12;" parent="kpHvmOQSyNTcDg02eDS4-1" source="HbcSAZgbtxkKeq7WqleZ-6" edge="1">
          <mxGeometry relative="1" as="geometry">
            <mxPoint x="-123" y="1638" as="targetPoint" />
            <Array as="points">
              <mxPoint x="-123" y="1696" />
              <mxPoint x="-123" y="1696" />
            </Array>
          </mxGeometry>
        </mxCell>
        <mxCell id="HbcSAZgbtxkKeq7WqleZ-6" value="ApplicationStyle" style="swimlane;fontStyle=1;align=center;verticalAlign=top;childLayout=stackLayout;horizontal=1;startSize=26;horizontalStack=0;resizeParent=1;resizeParentMax=0;resizeLast=0;collapsible=1;marginBottom=0;fontSize=15;shadow=1;" parent="kpHvmOQSyNTcDg02eDS4-1" vertex="1">
          <mxGeometry x="-482" y="1723" width="490" height="111" as="geometry" />
        </mxCell>
        <mxCell id="HbcSAZgbtxkKeq7WqleZ-7" value="+ setApplicationStyle(style: ApplicationStyleConfigurationObjectStrategy)&#xa;+ getApplicationStyle(): ApplicationStyleConfigurationObjectStrategy&#xa;+ getCurrentPieceStylePath(): Path&#xa;+ getPieceStylePath(style: String): Optional&lt;ApplicationStyleConfigurationObjectStrategy&gt;&#xa;" style="text;strokeColor=none;fillColor=none;align=left;verticalAlign=top;spacingLeft=4;spacingRight=4;overflow=hidden;rotatable=0;points=[[0,0.5],[1,0.5]];portConstraint=eastwest;shadow=1;fontStyle=4" parent="HbcSAZgbtxkKeq7WqleZ-6" vertex="1">
          <mxGeometry y="26" width="490" height="85" as="geometry" />
        </mxCell>
        <mxCell id="HbcSAZgbtxkKeq7WqleZ-8" value="uses" style="edgeStyle=orthogonalEdgeStyle;rounded=0;orthogonalLoop=1;jettySize=auto;html=1;shadow=1;endArrow=open;endFill=0;endSize=12;dashed=1;" parent="kpHvmOQSyNTcDg02eDS4-1" source="HbcSAZgbtxkKeq7WqleZ-9" target="HbcSAZgbtxkKeq7WqleZ-20" edge="1">
          <mxGeometry relative="1" as="geometry" />
        </mxCell>
        <mxCell id="HbcSAZgbtxkKeq7WqleZ-9" value="&lt;p style=&quot;margin: 0px ; margin-top: 4px ; text-align: center&quot;&gt;&lt;i&gt;&amp;lt;&amp;lt;Interface&amp;gt;&amp;gt;&lt;/i&gt;&lt;br&gt;&lt;b&gt;ConfigurationListStrategy&lt;/b&gt;&lt;/p&gt;&lt;hr size=&quot;1&quot;&gt;&lt;p style=&quot;margin: 0px ; margin-left: 4px&quot;&gt;+ getAllPath(): List&amp;lt;Path&amp;gt;&lt;/p&gt;&lt;p style=&quot;margin: 0px ; margin-left: 4px&quot;&gt;+ getAll(): List&amp;lt;? extends ConfigurationObjectStrategy&amp;gt;&lt;/p&gt;&lt;p style=&quot;margin: 0px ; margin-left: 4px&quot;&gt;+ getFolderPath(): Path&lt;/p&gt;&lt;p style=&quot;margin: 0px ; margin-left: 4px&quot;&gt;&lt;br&gt;&lt;/p&gt;" style="verticalAlign=top;align=left;overflow=fill;fontSize=12;fontFamily=Helvetica;html=1;shadow=1;" parent="kpHvmOQSyNTcDg02eDS4-1" vertex="1">
          <mxGeometry x="-644.0600000000001" y="1350.5" width="303.62" height="91" as="geometry" />
        </mxCell>
        <mxCell id="HbcSAZgbtxkKeq7WqleZ-10" style="edgeStyle=orthogonalEdgeStyle;rounded=0;orthogonalLoop=1;jettySize=auto;html=1;shadow=1;endArrow=none;endFill=0;endSize=12;" parent="kpHvmOQSyNTcDg02eDS4-1" source="HbcSAZgbtxkKeq7WqleZ-11" edge="1">
          <mxGeometry relative="1" as="geometry">
            <mxPoint x="-858" y="1644" as="targetPoint" />
          </mxGeometry>
        </mxCell>
        <mxCell id="HbcSAZgbtxkKeq7WqleZ-11" value="&lt;b&gt;PieceStylePathsStrategy&lt;/b&gt;" style="html=1;shadow=1;align=center;" parent="kpHvmOQSyNTcDg02eDS4-1" vertex="1">
          <mxGeometry x="-741" y="1619" width="151" height="50" as="geometry" />
        </mxCell>
        <mxCell id="HbcSAZgbtxkKeq7WqleZ-12" value="uses" style="edgeStyle=orthogonalEdgeStyle;rounded=0;orthogonalLoop=1;jettySize=auto;html=1;entryX=0.666;entryY=1.067;entryDx=0;entryDy=0;entryPerimeter=0;shadow=1;endArrow=open;endFill=0;endSize=12;" parent="kpHvmOQSyNTcDg02eDS4-1" source="HbcSAZgbtxkKeq7WqleZ-13" target="HbcSAZgbtxkKeq7WqleZ-22" edge="1">
          <mxGeometry relative="1" as="geometry">
            <Array as="points">
              <mxPoint x="-123" y="1644" />
              <mxPoint x="-123" y="1433" />
            </Array>
          </mxGeometry>
        </mxCell>
        <mxCell id="HbcSAZgbtxkKeq7WqleZ-13" value="&lt;b&gt;ApplicationStyleListStrategy&lt;/b&gt;" style="html=1;shadow=1;align=center;" parent="kpHvmOQSyNTcDg02eDS4-1" vertex="1">
          <mxGeometry x="-371.75" y="1619" width="171.75" height="50" as="geometry" />
        </mxCell>
        <mxCell id="HbcSAZgbtxkKeq7WqleZ-14" style="edgeStyle=orthogonalEdgeStyle;rounded=0;orthogonalLoop=1;jettySize=auto;html=1;entryX=0.5;entryY=1;entryDx=0;entryDy=0;shadow=1;endArrow=block;endFill=0;dashed=1;endSize=12;" parent="kpHvmOQSyNTcDg02eDS4-1" source="HbcSAZgbtxkKeq7WqleZ-17" target="HbcSAZgbtxkKeq7WqleZ-9" edge="1">
          <mxGeometry relative="1" as="geometry" />
        </mxCell>
        <mxCell id="HbcSAZgbtxkKeq7WqleZ-15" style="edgeStyle=orthogonalEdgeStyle;rounded=0;orthogonalLoop=1;jettySize=auto;html=1;entryX=0.25;entryY=0;entryDx=0;entryDy=0;shadow=1;endArrow=open;endFill=0;endSize=12;" parent="kpHvmOQSyNTcDg02eDS4-1" source="HbcSAZgbtxkKeq7WqleZ-17" target="HbcSAZgbtxkKeq7WqleZ-11" edge="1">
          <mxGeometry relative="1" as="geometry">
            <Array as="points">
              <mxPoint x="-706" y="1540" />
              <mxPoint x="-706" y="1589" />
            </Array>
          </mxGeometry>
        </mxCell>
        <mxCell id="QRrXCJ4ZQoJlhR3JRw7x-0" value="&lt;font style=&quot;font-size: 12px&quot;&gt;&amp;lt;&amp;lt;bind&amp;gt;&amp;gt; ?: PieceStyleConfigStrategy&lt;/font&gt;" style="edgeLabel;html=1;align=center;verticalAlign=middle;resizable=0;points=[];fontSize=22;" parent="HbcSAZgbtxkKeq7WqleZ-15" vertex="1" connectable="0">
          <mxGeometry x="0.1429" y="-3" relative="1" as="geometry">
            <mxPoint x="-1" y="30" as="offset" />
          </mxGeometry>
        </mxCell>
        <mxCell id="HbcSAZgbtxkKeq7WqleZ-16" value="&lt;span style=&quot;color: rgb(0 , 0 , 0) ; font-family: &amp;#34;helvetica&amp;#34; ; font-size: 12px ; font-style: normal ; font-weight: normal ; letter-spacing: normal ; text-align: center ; text-indent: 0px ; text-transform: none ; word-spacing: 0px ; background-color: rgb(255 , 255 , 255) ; text-decoration: none ; display: inline ; float: none&quot;&gt;&amp;lt;&amp;lt;bind&amp;gt;&amp;gt; ?: ApplicationStyleConfigStrategy&lt;/span&gt;" style="edgeStyle=orthogonalEdgeStyle;rounded=0;orthogonalLoop=1;jettySize=auto;html=1;shadow=1;endArrow=open;endFill=0;endSize=12;" parent="kpHvmOQSyNTcDg02eDS4-1" source="HbcSAZgbtxkKeq7WqleZ-17" target="HbcSAZgbtxkKeq7WqleZ-13" edge="1">
          <mxGeometry x="0.6409" relative="1" as="geometry">
            <Array as="points">
              <mxPoint x="-270" y="1544" />
            </Array>
            <mxPoint as="offset" />
          </mxGeometry>
        </mxCell>
        <mxCell id="HbcSAZgbtxkKeq7WqleZ-17" value="&lt;p style=&quot;margin: 0px ; margin-top: 4px ; text-align: center&quot;&gt;&lt;i&gt;&amp;lt;&amp;lt;Abstract&amp;gt;&amp;gt;&lt;/i&gt;&lt;br&gt;&lt;span style=&quot;font-size: 15px&quot;&gt;&lt;b&gt;PathsFromDirectory&lt;/b&gt;&lt;/span&gt;&lt;/p&gt;&amp;nbsp;# getFileFromDirectoryPath(path: Path): List&amp;lt;Path&amp;gt;" style="verticalAlign=top;align=left;overflow=fill;fontSize=12;fontFamily=Helvetica;html=1;shadow=1;" parent="kpHvmOQSyNTcDg02eDS4-1" vertex="1">
          <mxGeometry x="-632.87" y="1511" width="281.25" height="58" as="geometry" />
        </mxCell>
        <mxCell id="HbcSAZgbtxkKeq7WqleZ-18" style="edgeStyle=orthogonalEdgeStyle;rounded=0;orthogonalLoop=1;jettySize=auto;html=1;shadow=1;dashed=1;endArrow=block;endFill=0;endSize=12;" parent="kpHvmOQSyNTcDg02eDS4-1" source="HbcSAZgbtxkKeq7WqleZ-21" target="HbcSAZgbtxkKeq7WqleZ-20" edge="1">
          <mxGeometry relative="1" as="geometry">
            <Array as="points">
              <mxPoint x="-120" y="1245" />
            </Array>
          </mxGeometry>
        </mxCell>
        <mxCell id="HbcSAZgbtxkKeq7WqleZ-19" style="edgeStyle=orthogonalEdgeStyle;rounded=0;orthogonalLoop=1;jettySize=auto;html=1;shadow=1;endArrow=block;endFill=0;endSize=12;dashed=1;" parent="kpHvmOQSyNTcDg02eDS4-1" source="HbcSAZgbtxkKeq7WqleZ-23" target="HbcSAZgbtxkKeq7WqleZ-20" edge="1">
          <mxGeometry relative="1" as="geometry">
            <Array as="points">
              <mxPoint x="-860" y="1245" />
            </Array>
          </mxGeometry>
        </mxCell>
        <mxCell id="HbcSAZgbtxkKeq7WqleZ-20" value="&lt;p style=&quot;margin: 0px ; margin-top: 4px ; text-align: center&quot;&gt;&lt;i&gt;&amp;lt;&amp;lt;Interface&amp;gt;&amp;gt;&lt;/i&gt;&lt;br&gt;&lt;b&gt;ConfigurationObjectStrategy&lt;/b&gt;&lt;/p&gt;&lt;hr size=&quot;1&quot;&gt;&lt;p style=&quot;margin: 0px ; margin-left: 4px&quot;&gt;+ getPath(): Path&lt;/p&gt;&lt;p style=&quot;margin: 0px ; margin-left: 4px&quot;&gt;+ getFilePath(): Path&lt;/p&gt;&lt;p style=&quot;margin: 0px ; margin-left: 4px&quot;&gt;+ getName(): String&lt;/p&gt;&lt;p style=&quot;margin: 0px ; margin-left: 4px&quot;&gt;+ getFileName(): String&lt;/p&gt;" style="verticalAlign=top;align=left;overflow=fill;fontSize=12;fontFamily=Helvetica;html=1;shadow=1;" parent="kpHvmOQSyNTcDg02eDS4-1" vertex="1">
          <mxGeometry x="-587.25" y="1190" width="190" height="109" as="geometry" />
        </mxCell>
        <mxCell id="HbcSAZgbtxkKeq7WqleZ-21" value="ApplicationStyleConfigStrategy" style="swimlane;fontStyle=1;align=center;verticalAlign=top;childLayout=stackLayout;horizontal=1;startSize=26;horizontalStack=0;resizeParent=1;resizeParentMax=0;resizeLast=0;collapsible=1;marginBottom=0;shadow=1;" parent="kpHvmOQSyNTcDg02eDS4-1" vertex="1">
          <mxGeometry x="-306" y="1370" width="275" height="52" as="geometry" />
        </mxCell>
        <mxCell id="HbcSAZgbtxkKeq7WqleZ-22" value="+ ApplicationStorageStrategy(fileName: String)" style="text;strokeColor=none;fillColor=none;align=left;verticalAlign=top;spacingLeft=4;spacingRight=4;overflow=hidden;rotatable=0;points=[[0,0.5],[1,0.5]];portConstraint=eastwest;" parent="HbcSAZgbtxkKeq7WqleZ-21" vertex="1">
          <mxGeometry y="26" width="275" height="26" as="geometry" />
        </mxCell>
        <mxCell id="HbcSAZgbtxkKeq7WqleZ-23" value="PieceStyleConfigStrategy" style="swimlane;fontStyle=1;align=center;verticalAlign=top;childLayout=stackLayout;horizontal=1;startSize=26;horizontalStack=0;resizeParent=1;resizeParentMax=0;resizeLast=0;collapsible=1;marginBottom=0;shadow=1;" parent="kpHvmOQSyNTcDg02eDS4-1" vertex="1">
          <mxGeometry x="-951" y="1368.5" width="260" height="55" as="geometry" />
        </mxCell>
        <mxCell id="HbcSAZgbtxkKeq7WqleZ-24" value="+ PieceStyleConfigStrategy(fileName: String)" style="text;strokeColor=none;fillColor=none;align=left;verticalAlign=top;spacingLeft=4;spacingRight=4;overflow=hidden;rotatable=0;points=[[0,0.5],[1,0.5]];portConstraint=eastwest;" parent="HbcSAZgbtxkKeq7WqleZ-23" vertex="1">
          <mxGeometry y="26" width="260" height="29" as="geometry" />
        </mxCell>
        <mxCell id="HbcSAZgbtxkKeq7WqleZ-25" value="" style="whiteSpace=wrap;html=1;aspect=fixed;shadow=1;align=left;" parent="kpHvmOQSyNTcDg02eDS4-1" vertex="1">
          <mxGeometry x="-370" y="1330" width="40" height="40" as="geometry" />
        </mxCell>
        <mxCell id="HbcSAZgbtxkKeq7WqleZ-26" value="?" style="text;html=1;strokeColor=none;fillColor=none;align=center;verticalAlign=middle;whiteSpace=wrap;rounded=0;shadow=1;strokeWidth=2;fontSize=22;" parent="kpHvmOQSyNTcDg02eDS4-1" vertex="1">
          <mxGeometry x="-362.19" y="1340" width="21.75" height="20" as="geometry" />
        </mxCell>
        <mxCell id="gHhwg4zxxTNq2h8a02cA-2" style="edgeStyle=orthogonalEdgeStyle;rounded=0;orthogonalLoop=1;jettySize=auto;html=1;exitX=0.5;exitY=1;exitDx=0;exitDy=0;shadow=1;fontSize=22;endArrow=none;endFill=0;endSize=12;" parent="kpHvmOQSyNTcDg02eDS4-1" edge="1">
          <mxGeometry relative="1" as="geometry">
            <mxPoint x="-568.5" y="1625" as="sourcePoint" />
            <mxPoint x="-568.5" y="1625" as="targetPoint" />
          </mxGeometry>
        </mxCell>
        <mxCell id="gHhwg4zxxTNq2h8a02cA-5" style="edgeStyle=orthogonalEdgeStyle;rounded=0;orthogonalLoop=1;jettySize=auto;html=1;exitX=0.5;exitY=1;exitDx=0;exitDy=0;shadow=1;fontSize=22;endArrow=none;endFill=0;endSize=12;" parent="kpHvmOQSyNTcDg02eDS4-1" edge="1">
          <mxGeometry relative="1" as="geometry">
            <mxPoint x="-175" y="1625" as="sourcePoint" />
            <mxPoint x="-175" y="1625" as="targetPoint" />
          </mxGeometry>
        </mxCell>
      </root>
    </mxGraphModel>
  </diagram>
  <diagram id="AeM29gzgbLIOMOxAmoFQ" name="Sound">
    <mxGraphModel dx="119" dy="-524" grid="1" gridSize="10" guides="1" tooltips="1" connect="1" arrows="1" fold="1" page="1" pageScale="1" pageWidth="827" pageHeight="1169" math="0" shadow="0">
      <root>
        <mxCell id="h6x7zy_oUr5M1BMtfHvg-0" />
        <mxCell id="h6x7zy_oUr5M1BMtfHvg-1" parent="h6x7zy_oUr5M1BMtfHvg-0" />
        <mxCell id="M-MUdj3xoLHoxADtiDHy-0" value="Sound" style="swimlane;fontStyle=1;align=center;verticalAlign=top;childLayout=stackLayout;horizontal=1;startSize=26;horizontalStack=0;resizeParent=1;resizeParentMax=0;resizeLast=0;collapsible=1;marginBottom=0;fontSize=15;shadow=1;" parent="h6x7zy_oUr5M1BMtfHvg-1" vertex="1">
          <mxGeometry x="1055.5" y="1413" width="170" height="80" as="geometry" />
        </mxCell>
        <mxCell id="M-MUdj3xoLHoxADtiDHy-1" value="+ play(sound: SoundsEnum)&#xa;+ getVolume(): double&#xa;+ setVolume(volume: double)" style="text;strokeColor=none;fillColor=none;align=left;verticalAlign=top;spacingLeft=4;spacingRight=4;overflow=hidden;rotatable=0;points=[[0,0.5],[1,0.5]];portConstraint=eastwest;shadow=1;fontStyle=4" parent="M-MUdj3xoLHoxADtiDHy-0" vertex="1">
          <mxGeometry y="26" width="170" height="54" as="geometry" />
        </mxCell>
        <mxCell id="M-MUdj3xoLHoxADtiDHy-2" style="edgeStyle=none;rounded=0;orthogonalLoop=1;jettySize=auto;html=1;fontSize=15;endArrow=open;endFill=0;shadow=1;entryX=0.5;entryY=1;entryDx=0;entryDy=0;" parent="h6x7zy_oUr5M1BMtfHvg-1" source="M-MUdj3xoLHoxADtiDHy-0" target="M-MUdj3xoLHoxADtiDHy-3" edge="1">
          <mxGeometry relative="1" as="geometry">
            <mxPoint x="1140.5" y="1378" as="targetPoint" />
          </mxGeometry>
        </mxCell>
        <mxCell id="M-MUdj3xoLHoxADtiDHy-3" value="&lt;p style=&quot;margin: 0px ; margin-top: 4px ; text-align: center&quot;&gt;&lt;i&gt;&amp;lt;&amp;lt;Enumeration&amp;gt;&amp;gt;&lt;/i&gt;&lt;br&gt;&lt;b&gt;SoundEnum&lt;/b&gt;&lt;/p&gt;&lt;hr size=&quot;1&quot;&gt;&lt;p style=&quot;margin: 0px ; margin-left: 4px&quot;&gt;+ MOVE&lt;/p&gt;&lt;p style=&quot;margin: 0px ; margin-left: 4px&quot;&gt;+ CHECK&lt;/p&gt;&lt;p style=&quot;margin: 0px ; margin-left: 4px&quot;&gt;+ CHECKMATE&lt;/p&gt;&lt;p style=&quot;margin: 0px ; margin-left: 4px&quot;&gt;+ CAPTURE&lt;/p&gt;&lt;p style=&quot;margin: 0px ; margin-left: 4px&quot;&gt;+ getSoundFileName(): String&lt;br style=&quot;padding: 0px ; margin: 0px&quot;&gt;+ fromMovementResult(movementResult: MovementResult): SoundEnum&lt;br&gt;&lt;/p&gt;" style="verticalAlign=top;align=left;overflow=fill;fontSize=12;fontFamily=Helvetica;html=1;shadow=1;" parent="h6x7zy_oUr5M1BMtfHvg-1" vertex="1">
          <mxGeometry x="940" y="1240" width="401" height="140" as="geometry" />
        </mxCell>
      </root>
    </mxGraphModel>
  </diagram>
  <diagram id="Fywfflt9anEurSC-FJ2V" name="Setting">
    <mxGraphModel dx="119" dy="645" grid="1" gridSize="10" guides="1" tooltips="1" connect="1" arrows="1" fold="1" page="1" pageScale="1" pageWidth="827" pageHeight="1169" math="0" shadow="0">
      <root>
        <mxCell id="mnuuHmWct5wNnWRM1_UW-0" />
        <mxCell id="mnuuHmWct5wNnWRM1_UW-1" parent="mnuuHmWct5wNnWRM1_UW-0" />
        <mxCell id="mnuuHmWct5wNnWRM1_UW-2" style="edgeStyle=none;rounded=0;orthogonalLoop=1;jettySize=auto;html=1;fontSize=15;exitX=0.5;exitY=1;exitDx=0;exitDy=0;endArrow=block;endFill=0;dashed=1;endSize=12;shadow=1;" parent="mnuuHmWct5wNnWRM1_UW-1" source="mnuuHmWct5wNnWRM1_UW-22" target="mnuuHmWct5wNnWRM1_UW-3" edge="1">
          <mxGeometry relative="1" as="geometry">
            <mxPoint x="2070" y="563" as="sourcePoint" />
          </mxGeometry>
        </mxCell>
        <mxCell id="mnuuHmWct5wNnWRM1_UW-3" value="&lt;p style=&quot;margin: 0px ; margin-top: 4px ; text-align: center&quot;&gt;&lt;i&gt;&amp;lt;&amp;lt;Interface&amp;gt;&amp;gt;&lt;/i&gt;&lt;br&gt;&lt;b&gt;SettingsDataStorageJsonStrategy&amp;lt;T&amp;gt;&lt;/b&gt;&lt;/p&gt;&lt;hr size=&quot;1&quot;&gt;&lt;p style=&quot;margin: 0px ; margin-left: 4px&quot;&gt;+ setSetting(value: T)&lt;/p&gt;&lt;p style=&quot;margin: 0px ; margin-left: 4px&quot;&gt;+ getSetting(): Optional&amp;lt;T&amp;gt;&lt;/p&gt;&lt;p style=&quot;margin: 0px ; margin-left: 4px&quot;&gt;&lt;br&gt;&lt;/p&gt;" style="verticalAlign=top;align=left;overflow=fill;fontSize=12;fontFamily=Helvetica;html=1;shadow=1;" parent="mnuuHmWct5wNnWRM1_UW-1" vertex="1">
          <mxGeometry x="1933.5" y="576" width="252" height="80" as="geometry" />
        </mxCell>
        <mxCell id="mnuuHmWct5wNnWRM1_UW-4" value="&lt;div class=&quot;page&quot; title=&quot;Page 21&quot; style=&quot;color: rgb(0 , 0 , 0) ; font-style: normal ; font-weight: normal ; letter-spacing: normal ; text-indent: 0px ; text-transform: none ; word-spacing: 0px ; text-decoration: none&quot;&gt;&lt;div class=&quot;section&quot; style=&quot;background-color: rgb(255 , 255 , 255)&quot;&gt;&lt;div class=&quot;layoutArea&quot;&gt;&lt;div class=&quot;column&quot;&gt;&lt;p&gt;&lt;br&gt;&lt;/p&gt;&lt;/div&gt;&lt;/div&gt;&lt;/div&gt;&lt;/div&gt;" style="edgeStyle=orthogonalEdgeStyle;rounded=0;orthogonalLoop=1;jettySize=auto;html=1;shadow=1;endArrow=none;endFill=0;" parent="mnuuHmWct5wNnWRM1_UW-1" source="mnuuHmWct5wNnWRM1_UW-6" edge="1">
          <mxGeometry relative="1" as="geometry">
            <mxPoint x="2059" y="412" as="targetPoint" />
            <Array as="points">
              <mxPoint x="1772" y="412" />
              <mxPoint x="2059" y="412" />
            </Array>
          </mxGeometry>
        </mxCell>
        <mxCell id="mnuuHmWct5wNnWRM1_UW-5" style="edgeStyle=orthogonalEdgeStyle;rounded=0;orthogonalLoop=1;jettySize=auto;html=1;shadow=1;endArrow=none;endFill=0;" parent="mnuuHmWct5wNnWRM1_UW-1" source="mnuuHmWct5wNnWRM1_UW-6" edge="1">
          <mxGeometry relative="1" as="geometry">
            <mxPoint x="2060" y="283" as="targetPoint" />
            <Array as="points">
              <mxPoint x="1772" y="283" />
              <mxPoint x="2060" y="283" />
            </Array>
          </mxGeometry>
        </mxCell>
        <mxCell id="mnuuHmWct5wNnWRM1_UW-6" value="&lt;b&gt;PieceStyleDateStorageJsonStrategy&lt;/b&gt;" style="html=1;fontSize=15;shadow=1;" parent="mnuuHmWct5wNnWRM1_UW-1" vertex="1">
          <mxGeometry x="1622.75" y="316" width="269" height="50" as="geometry" />
        </mxCell>
        <mxCell id="mnuuHmWct5wNnWRM1_UW-7" style="edgeStyle=none;rounded=0;orthogonalLoop=1;jettySize=auto;html=1;entryX=0.5;entryY=1;entryDx=0;entryDy=0;fontSize=15;endArrow=diamond;endFill=0;endSize=12;shadow=1;" parent="mnuuHmWct5wNnWRM1_UW-1" source="mnuuHmWct5wNnWRM1_UW-8" target="mnuuHmWct5wNnWRM1_UW-18" edge="1">
          <mxGeometry relative="1" as="geometry" />
        </mxCell>
        <mxCell id="mnuuHmWct5wNnWRM1_UW-8" value="&lt;b&gt;ApplicationStyleDateStorageJsonStrategy&lt;/b&gt;" style="html=1;fontSize=15;shadow=1;" parent="mnuuHmWct5wNnWRM1_UW-1" vertex="1">
          <mxGeometry x="1903.5" y="316" width="312" height="50" as="geometry" />
        </mxCell>
        <mxCell id="mnuuHmWct5wNnWRM1_UW-9" style="edgeStyle=orthogonalEdgeStyle;rounded=0;orthogonalLoop=1;jettySize=auto;html=1;shadow=1;endArrow=none;endFill=0;" parent="mnuuHmWct5wNnWRM1_UW-1" source="mnuuHmWct5wNnWRM1_UW-11" edge="1">
          <mxGeometry relative="1" as="geometry">
            <mxPoint x="2058" y="412" as="targetPoint" />
            <Array as="points">
              <mxPoint x="2350" y="412" />
              <mxPoint x="2058" y="412" />
            </Array>
          </mxGeometry>
        </mxCell>
        <mxCell id="mnuuHmWct5wNnWRM1_UW-10" style="edgeStyle=orthogonalEdgeStyle;rounded=0;orthogonalLoop=1;jettySize=auto;html=1;shadow=1;endArrow=none;endFill=0;" parent="mnuuHmWct5wNnWRM1_UW-1" source="mnuuHmWct5wNnWRM1_UW-11" edge="1">
          <mxGeometry relative="1" as="geometry">
            <mxPoint x="2060" y="283" as="targetPoint" />
            <Array as="points">
              <mxPoint x="2347" y="283" />
              <mxPoint x="2060" y="283" />
            </Array>
          </mxGeometry>
        </mxCell>
        <mxCell id="mnuuHmWct5wNnWRM1_UW-11" value="&lt;b&gt;SoundStyleDateStorageJsonStrategy&lt;/b&gt;" style="html=1;fontSize=15;shadow=1;" parent="mnuuHmWct5wNnWRM1_UW-1" vertex="1">
          <mxGeometry x="2227.25" y="316" width="279.87" height="50" as="geometry" />
        </mxCell>
        <mxCell id="mnuuHmWct5wNnWRM1_UW-12" style="edgeStyle=orthogonalEdgeStyle;rounded=0;orthogonalLoop=1;jettySize=auto;html=1;shadow=1;endArrow=open;endFill=0;endSize=12;" parent="mnuuHmWct5wNnWRM1_UW-1" target="mnuuHmWct5wNnWRM1_UW-13" edge="1">
          <mxGeometry relative="1" as="geometry">
            <Array as="points">
              <mxPoint x="2060" y="99" />
              <mxPoint x="1930" y="99" />
            </Array>
            <mxPoint x="2060" y="99" as="sourcePoint" />
          </mxGeometry>
        </mxCell>
        <mxCell id="mnuuHmWct5wNnWRM1_UW-13" value="&lt;b&gt;PieceStyle&lt;/b&gt;" style="html=1;fontSize=15;shadow=1;" parent="mnuuHmWct5wNnWRM1_UW-1" vertex="1">
          <mxGeometry x="1870" y="20" width="114.5" height="50" as="geometry" />
        </mxCell>
        <mxCell id="mnuuHmWct5wNnWRM1_UW-14" value="&lt;b&gt;ApplicationStyle&lt;/b&gt;" style="html=1;fontSize=15;shadow=1;" parent="mnuuHmWct5wNnWRM1_UW-1" vertex="1">
          <mxGeometry x="1996.75" y="20" width="125.5" height="50" as="geometry" />
        </mxCell>
        <mxCell id="mnuuHmWct5wNnWRM1_UW-15" style="edgeStyle=orthogonalEdgeStyle;rounded=0;orthogonalLoop=1;jettySize=auto;html=1;shadow=1;endArrow=open;endFill=0;endSize=12;" parent="mnuuHmWct5wNnWRM1_UW-1" target="mnuuHmWct5wNnWRM1_UW-16" edge="1">
          <mxGeometry relative="1" as="geometry">
            <Array as="points">
              <mxPoint x="2059" y="99" />
              <mxPoint x="2190" y="99" />
            </Array>
            <mxPoint x="2059" y="99" as="sourcePoint" />
          </mxGeometry>
        </mxCell>
        <mxCell id="mnuuHmWct5wNnWRM1_UW-16" value="&lt;b&gt;Sound&lt;/b&gt;" style="html=1;fontSize=15;shadow=1;" parent="mnuuHmWct5wNnWRM1_UW-1" vertex="1">
          <mxGeometry x="2134.5" y="20" width="125.5" height="50" as="geometry" />
        </mxCell>
        <mxCell id="mnuuHmWct5wNnWRM1_UW-17" style="edgeStyle=none;rounded=0;orthogonalLoop=1;jettySize=auto;html=1;startSize=6;endArrow=open;endFill=0;endSize=12;fontSize=15;shadow=1;" parent="mnuuHmWct5wNnWRM1_UW-1" source="mnuuHmWct5wNnWRM1_UW-18" target="mnuuHmWct5wNnWRM1_UW-14" edge="1">
          <mxGeometry relative="1" as="geometry" />
        </mxCell>
        <mxCell id="iw3KyECtpwAH-T9fakmB-0" value="uses" style="edgeLabel;html=1;align=center;verticalAlign=middle;resizable=0;points=[];" parent="mnuuHmWct5wNnWRM1_UW-17" vertex="1" connectable="0">
          <mxGeometry x="-0.4987" y="-3" relative="1" as="geometry">
            <mxPoint as="offset" />
          </mxGeometry>
        </mxCell>
        <mxCell id="mnuuHmWct5wNnWRM1_UW-18" value="&lt;p style=&quot;margin: 0px ; margin-top: 4px ; text-align: center&quot;&gt;&lt;b&gt;SettingMediator&lt;/b&gt;&lt;/p&gt;&lt;hr size=&quot;1&quot;&gt;&lt;p style=&quot;margin: 0px ; margin-left: 4px&quot;&gt;&lt;u&gt;+ setAndSaveApplicationStyle(style: ApplicationStyleEnum)&lt;br&gt;&lt;/u&gt;&lt;/p&gt;&lt;p style=&quot;margin: 0px ; margin-left: 4px&quot;&gt;&lt;u&gt;+ setAndSavePieceStyle(style: PieceStyleEnum)&lt;br&gt;&lt;/u&gt;&lt;/p&gt;&lt;p style=&quot;margin: 0px ; margin-left: 4px&quot;&gt;&lt;u&gt;+ setAndSaveSoundVolume(volume: double)&lt;br&gt;&lt;/u&gt;&lt;/p&gt;&lt;p style=&quot;margin: 0px ; margin-left: 4px&quot;&gt;&lt;u&gt;+ getSavedApplicationStyle(): ApplicationStyleEnum&lt;/u&gt;&lt;/p&gt;&lt;p style=&quot;margin: 0px ; margin-left: 4px&quot;&gt;&lt;u&gt;+ getSavedPieceStyle(): PieceStyleEnum&lt;br&gt;&lt;/u&gt;&lt;/p&gt;&lt;p style=&quot;margin: 0px ; margin-left: 4px&quot;&gt;&lt;u&gt;+ getSavedSoundVolume(): double&lt;/u&gt;&lt;br&gt;&lt;/p&gt;" style="verticalAlign=top;align=left;overflow=fill;fontSize=12;fontFamily=Helvetica;html=1;shadow=1;" parent="mnuuHmWct5wNnWRM1_UW-1" vertex="1">
          <mxGeometry x="1891.75" y="140" width="335.5" height="119" as="geometry" />
        </mxCell>
        <mxCell id="mnuuHmWct5wNnWRM1_UW-19" style="edgeStyle=none;rounded=0;orthogonalLoop=1;jettySize=auto;html=1;fontSize=15;entryX=0.5;entryY=0;entryDx=0;entryDy=0;endArrow=block;endFill=0;endSize=12;shadow=1;" parent="mnuuHmWct5wNnWRM1_UW-1" source="mnuuHmWct5wNnWRM1_UW-8" target="mnuuHmWct5wNnWRM1_UW-22" edge="1">
          <mxGeometry relative="1" as="geometry">
            <mxPoint x="2060" y="466" as="targetPoint" />
          </mxGeometry>
        </mxCell>
        <mxCell id="mnuuHmWct5wNnWRM1_UW-20" style="edgeStyle=none;rounded=0;orthogonalLoop=1;jettySize=auto;html=1;startSize=6;endArrow=open;endFill=0;endSize=12;fontSize=15;shadow=1;" parent="mnuuHmWct5wNnWRM1_UW-1" source="mnuuHmWct5wNnWRM1_UW-22" target="mnuuHmWct5wNnWRM1_UW-23" edge="1">
          <mxGeometry relative="1" as="geometry" />
        </mxCell>
        <mxCell id="iw3KyECtpwAH-T9fakmB-1" value="uses" style="edgeLabel;html=1;align=center;verticalAlign=middle;resizable=0;points=[];" parent="mnuuHmWct5wNnWRM1_UW-20" vertex="1" connectable="0">
          <mxGeometry x="-0.1391" relative="1" as="geometry">
            <mxPoint x="1" y="1" as="offset" />
          </mxGeometry>
        </mxCell>
        <mxCell id="mnuuHmWct5wNnWRM1_UW-21" style="edgeStyle=none;rounded=0;orthogonalLoop=1;jettySize=auto;html=1;entryX=1;entryY=0.5;entryDx=0;entryDy=0;startSize=6;endArrow=open;endFill=0;endSize=12;fontSize=15;shadow=1;" parent="mnuuHmWct5wNnWRM1_UW-1" source="mnuuHmWct5wNnWRM1_UW-22" target="mnuuHmWct5wNnWRM1_UW-26" edge="1">
          <mxGeometry relative="1" as="geometry">
            <mxPoint x="1875.94" y="487.50800000000027" as="targetPoint" />
          </mxGeometry>
        </mxCell>
        <mxCell id="iw3KyECtpwAH-T9fakmB-2" value="uses" style="edgeLabel;html=1;align=center;verticalAlign=middle;resizable=0;points=[];" parent="mnuuHmWct5wNnWRM1_UW-21" vertex="1" connectable="0">
          <mxGeometry x="-0.3217" y="3" relative="1" as="geometry">
            <mxPoint x="-7" y="-3" as="offset" />
          </mxGeometry>
        </mxCell>
        <mxCell id="mnuuHmWct5wNnWRM1_UW-22" value="&lt;p style=&quot;margin: 0px ; margin-top: 4px ; text-align: center&quot;&gt;&lt;i&gt;&amp;lt;&amp;lt;Abstract&amp;gt;&amp;gt;&lt;/i&gt;&lt;br&gt;&lt;span style=&quot;font-size: 15px ; font-weight: bold&quot;&gt;SettingDataStorageJson&lt;/span&gt;&lt;br&gt;&lt;/p&gt;&lt;hr size=&quot;1&quot;&gt;&lt;p style=&quot;margin: 0px ; margin-left: 4px&quot;&gt;# put(parameter: SettingTypeEnum, value: String)&lt;br style=&quot;padding: 0px ; margin: 0px&quot;&gt;# getSettingValue(parameter: SettingTypeEnum): String&lt;br&gt;&lt;/p&gt;" style="verticalAlign=top;align=left;overflow=fill;fontSize=12;fontFamily=Helvetica;html=1;shadow=1;" parent="mnuuHmWct5wNnWRM1_UW-1" vertex="1">
          <mxGeometry x="1907.5" y="445" width="304" height="87" as="geometry" />
        </mxCell>
        <mxCell id="mnuuHmWct5wNnWRM1_UW-23" value="&lt;b&gt;DirectoryConfiguration&lt;/b&gt;" style="html=1;fontSize=15;shadow=1;" parent="mnuuHmWct5wNnWRM1_UW-1" vertex="1">
          <mxGeometry x="2300" y="463.5" width="173.38" height="50" as="geometry" />
        </mxCell>
        <mxCell id="mnuuHmWct5wNnWRM1_UW-24" value="" style="whiteSpace=wrap;html=1;aspect=fixed;shadow=1;" parent="mnuuHmWct5wNnWRM1_UW-1" vertex="1">
          <mxGeometry x="2173" y="565" width="20" height="20" as="geometry" />
        </mxCell>
        <mxCell id="mnuuHmWct5wNnWRM1_UW-25" value="T" style="text;html=1;strokeColor=none;fillColor=none;align=center;verticalAlign=middle;whiteSpace=wrap;rounded=0;shadow=1;" parent="mnuuHmWct5wNnWRM1_UW-1" vertex="1">
          <mxGeometry x="2172" y="565" width="22" height="20" as="geometry" />
        </mxCell>
        <mxCell id="mnuuHmWct5wNnWRM1_UW-26" value="&lt;p style=&quot;margin: 0px ; margin-top: 4px ; text-align: center&quot;&gt;&lt;i&gt;&amp;lt;&amp;lt;Enumeration&amp;gt;&amp;gt;&lt;/i&gt;&lt;br&gt;&lt;b&gt;SettingTypeEnum&lt;/b&gt;&lt;/p&gt;&lt;hr size=&quot;1&quot;&gt;&lt;p style=&quot;margin: 0px ; margin-left: 4px&quot;&gt;+ APPLICATION_STYLE&lt;/p&gt;&lt;p style=&quot;margin: 0px ; margin-left: 4px&quot;&gt;+ PIECE_STYLE&lt;/p&gt;&lt;p style=&quot;margin: 0px ; margin-left: 4px&quot;&gt;+ SOUND_VOLUME&lt;/p&gt;&lt;p style=&quot;margin: 0px ; margin-left: 4px&quot;&gt;+ getSettingName(): String&lt;br&gt;&lt;/p&gt;" style="verticalAlign=top;align=left;overflow=fill;fontSize=12;fontFamily=Helvetica;html=1;shadow=1;" parent="mnuuHmWct5wNnWRM1_UW-1" vertex="1">
          <mxGeometry x="1660" y="435.75" width="160" height="105.5" as="geometry" />
        </mxCell>
      </root>
    </mxGraphModel>
  </diagram>
</mxfile>
